<svg xmlns="http://www.w3.org/2000/svg" xmlns:xlink="http://www.w3.org/1999/xlink" width="22" height="22" viewBox="0 0 22 22">
    <defs>
        <path id="a" d="M0 10.462V.049h12.754v10.413z"/>
    </defs>
    <g fill="none" fill-rule="evenodd">
        <g transform="translate(5 11.538)">
            <mask id="b" fill="#fff">
                <use xlink:href="#a"/>
            </mask>
            <path fill="#C0D5B3" d="M8.676 4.47a10.667 10.667 0 0 0 3.3-1.36A1.653 1.653 0 0 0 12.5.823a1.669 1.669 0 0 0-2.294-.522l-.002.002a7.245 7.245 0 0 1-7.651 0A1.668 1.668 0 0 0 .258.822L.256.824A1.653 1.653 0 0 0 .778 3.11a10.677 10.677 0 0 0 3.3 1.36L.9 7.632a1.652 1.652 0 0 0 0 2.344 1.67 1.67 0 0 0 2.355 0l3.122-3.108L9.5 9.976a1.668 1.668 0 0 0 2.35.002l.003-.002c.65-.645.651-1.693.003-2.34l-.003-.003-3.177-3.164" mask="url(#b)"/>
        </g>
        <path fill="#C0D5B3" d="M11.462 8.05a2.36 2.36 0 0 1-2.357-2.356 2.36 2.36 0 0 1 2.357-2.357 2.36 2.36 0 0 1 2.356 2.357 2.36 2.36 0 0 1-2.356 2.356m0-8.05a5.699 5.699 0 0 0-5.693 5.694 5.698 5.698 0 0 0 5.693 5.69 5.697 5.697 0 0 0 5.692-5.69A5.699 5.699 0 0 0 11.462 0"/>
    </g>
</svg>
