<?xml version="1.0" encoding="utf-8"?>
<!-- Generator: Adobe Illustrator 21.1.0, SVG Export Plug-In . SVG Version: 6.00 Build 0)  -->
<svg version="1.1" id="Слой_1" xmlns="http://www.w3.org/2000/svg" xmlns:xlink="http://www.w3.org/1999/xlink" x="0px" y="0px"
	 viewBox="0 0 98 98" style="enable-background:new 0 0 98 98;" xml:space="preserve">
<style type="text/css">
	.st0{fill:#7DCC4A;}
</style>
<g>
	<path class="st0" d="M48.9,99.3c-27.8,0-50.4-22.6-50.4-50.4S21.1-1.5,48.9-1.5s50.4,22.6,50.4,50.4S76.7,99.3,48.9,99.3z
		 M48.9,1.5C22.8,1.5,1.5,22.8,1.5,48.9s21.3,47.4,47.4,47.4S96.3,75,96.3,48.9S75,1.5,48.9,1.5z"/>
	<path class="st0" d="M32.1,72.1V25.7c0-1.9,1.6-3.5,3.5-3.5s3.5,1.6,3.5,3.5v40.4l29.7-17.2L49.4,37.7c-1.7-1-2.2-3.1-1.3-4.8
		c1-1.7,3.1-2.2,4.8-1.3l24.6,14.3c1.1,0.6,1.8,1.8,1.8,3s-0.7,2.4-1.8,3L37.3,75.1c-0.5,0.3-1.1,0.5-1.8,0.5s-1.2-0.2-1.8-0.5
		C32.7,74.5,32.1,73.4,32.1,72.1z"/>
</g>
</svg>
