<?xml version="1.0" encoding="utf-8"?>
<!-- Generator: Adobe Illustrator 21.1.0, SVG Export Plug-In . SVG Version: 6.00 Build 0)  -->
<svg version="1.1" id="Слой_1" xmlns="http://www.w3.org/2000/svg" xmlns:xlink="http://www.w3.org/1999/xlink" x="0px" y="0px"
	 viewBox="0 0 100 100" style="enable-background:new 0 0 100 100;" xml:space="preserve">
<style type="text/css">
	.st0{fill:#FFFFFF;}
</style>
<g>
	<path class="st0" d="M49.8,66.7c-14,0-27.2-8.7-32.1-22.6c-3.1-8.6-2.6-17.8,1.3-26S29.7,3.5,38.3,0.5l0.5,1.4l-0.5-1.4
		c8.6-3.1,17.8-2.6,26,1.3c8.2,3.9,14.4,10.8,17.5,19.3c3.1,8.6,2.6,17.8-1.3,26c-3.9,8.2-10.8,14.4-19.3,17.5
		C57.4,66,53.6,66.7,49.8,66.7z M49.8,1.5c-3.5,0-7,0.6-10.5,1.8c0,0,0,0,0,0c-7.8,2.8-14.1,8.5-17.6,16c-3.6,7.5-4,15.9-1.2,23.8
		C26.2,59.2,44,67.6,60.2,61.8c7.8-2.8,14.1-8.5,17.6-16c3.6-7.5,4-15.9,1.2-23.8c-2.8-7.8-8.5-14.1-16-17.6
		C58.8,2.5,54.3,1.5,49.8,1.5z"/>
	<path class="st0" d="M72,101c-0.5,0-1-0.3-1.3-0.8L51.9,65.9c-0.4-0.7-0.1-1.6,0.6-2c0.7-0.4,1.6-0.1,2,0.6l17.3,31.4l4-10.7
		c0.2-0.6,0.8-1,1.4-1h14.5L77.4,60.8c-0.4-0.7-0.2-1.6,0.5-2.1c0.7-0.4,1.6-0.2,2.1,0.5L95.6,85c0.3,0.5,0.3,1,0,1.5
		s-0.8,0.8-1.3,0.8H78.2L73.4,100c-0.2,0.5-0.7,0.9-1.3,1C72.1,101,72.1,101,72,101z M27.4,101c0,0-0.1,0-0.1,0
		c-0.6,0-1.1-0.4-1.3-1l-4.8-12.7H5.1c-0.5,0-1-0.3-1.3-0.8c-0.3-0.5-0.3-1.1,0-1.5l18.9-30.9c0.4-0.7,1.4-0.9,2.1-0.5
		c0.7,0.4,0.9,1.4,0.5,2.1L7.8,84.2h14.5c0.6,0,1.2,0.4,1.4,1l4,10.7l13.5-24.6c0.4-0.7,1.3-1,2-0.6c0.7,0.4,1,1.3,0.6,2l-15.1,27.4
		C28.5,100.7,28,101,27.4,101z M96.6,49.5c-0.4,0-0.7-0.1-1-0.4L89.9,44c-0.6-0.6-0.7-1.5-0.1-2.1c0.6-0.6,1.5-0.7,2.1-0.1l5.7,5.1
		c0.6,0.6,0.7,1.5,0.1,2.1C97.4,49.3,97,49.5,96.6,49.5z M2.9,49.5c-0.4,0-0.8-0.2-1.1-0.5c-0.6-0.6-0.5-1.6,0.1-2.1l5.7-5.1
		c0.6-0.6,1.6-0.5,2.1,0.1c0.6,0.6,0.5,1.6-0.1,2.1l-5.7,5.1C3.6,49.4,3.2,49.5,2.9,49.5z M65.2,49.5H34.3c-0.7,0-1.4-0.5-1.5-1.3
		l-1.7-12l0,0l-1.3-9.1c-2.2-0.5-3.9-2.5-3.9-4.8c0-2.7,2.2-4.9,4.9-4.9v0c0,0,0,0,0,0c1.3,0,2.6,0.5,3.5,1.4
		c0.9,0.9,1.4,2.2,1.4,3.5c0,1.3-0.5,2.4-1.2,3.3l7.7,7.7l5-13.6c-1.4-0.9-2.4-2.4-2.4-4.2c0-2.7,2.2-4.9,4.9-4.9c0,0,0,0,0,0
		c1.3,0,2.6,0.5,3.5,1.4c0.9,0.9,1.4,2.2,1.4,3.5c0,1.8-1,3.4-2.4,4.2l5,13.6l7.7-7.7c-0.8-0.9-1.2-2-1.2-3.3c0-2.7,2.2-4.9,4.9-4.9
		v0h0c2.7,0,4.9,2.2,4.9,4.9c0,2.4-1.7,4.3-3.9,4.8l-1.3,9.1c0,0,0,0,0,0l-1.7,12C66.6,49,65.9,49.5,65.2,49.5z M35.6,46.5h28.3
		l1.5-10.7c0,0,0,0,0,0l1.1-7.6L57.7,37c-0.1,0.1-0.1,0.1-0.2,0.2c-0.6,0.4-1.4,0.4-2-0.1c-0.2-0.2-0.3-0.4-0.4-0.6l-5.4-14.9
		l-5.5,15c-0.3,0.8-1.1,1.2-1.9,0.9c-0.2-0.1-0.4-0.2-0.6-0.4L33,28.2l1.1,7.6v0c0,0,0,0,0,0L35.6,46.5z M68.6,20.4
		c-0.5,0-1,0.2-1.4,0.6c-0.4,0.4-0.6,0.8-0.6,1.4c0,1.1,0.9,1.9,1.9,1.9s1.9-0.9,1.9-1.9C70.5,21.2,69.7,20.4,68.6,20.4
		C68.6,20.4,68.6,20.4,68.6,20.4C68.6,20.4,68.6,20.4,68.6,20.4C68.6,20.4,68.6,20.4,68.6,20.4z M30.9,20.4c-0.5,0-1,0.2-1.4,0.6
		s-0.6,0.8-0.6,1.4c0,1.1,0.9,1.9,1.9,1.9s1.9-0.9,1.9-1.9c0-0.5-0.2-1-0.6-1.4S31.4,20.4,30.9,20.4C30.9,20.4,30.9,20.4,30.9,20.4
		C30.9,20.4,30.9,20.4,30.9,20.4C30.9,20.4,30.9,20.4,30.9,20.4z M49.7,13.5c-1.1,0-1.9,0.9-1.9,1.9c0,1.1,0.9,1.9,1.9,1.9h0
		c1.1,0,1.9-0.9,1.9-1.9c0-0.5-0.2-1-0.6-1.4C50.7,13.7,50.3,13.5,49.7,13.5L49.7,13.5z M99.5,37.5h-8.6c-0.8,0-1.5-0.7-1.5-1.5
		s0.7-1.5,1.5-1.5h8.6c0.8,0,1.5,0.7,1.5,1.5S100.3,37.5,99.5,37.5z M8.6,37.5H0c-0.8,0-1.5-0.7-1.5-1.5s0.7-1.5,1.5-1.5h8.6
		c0.8,0,1.5,0.7,1.5,1.5S9.4,37.5,8.6,37.5z M90.9,30.6c-0.4,0-0.8-0.2-1.1-0.5c-0.6-0.6-0.5-1.6,0.1-2.1l5.7-5.1
		c0.6-0.6,1.6-0.5,2.1,0.1c0.6,0.6,0.5,1.6-0.1,2.1l-5.7,5.1C91.6,30.5,91.3,30.6,90.9,30.6z M8.6,30.6c-0.4,0-0.7-0.1-1-0.4
		l-5.7-5.1c-0.6-0.6-0.7-1.5-0.1-2.1c0.6-0.6,1.5-0.7,2.1-0.1L9.6,28c0.6,0.6,0.7,1.5,0.1,2.1C9.4,30.5,9,30.6,8.6,30.6z"/>
</g>
</svg>
