<?xml version="1.0" encoding="utf-8"?>
<!-- Generator: Adobe Illustrator 21.1.0, SVG Export Plug-In . SVG Version: 6.00 Build 0)  -->
<svg version="1.1" id="Слой_1" xmlns="http://www.w3.org/2000/svg" xmlns:xlink="http://www.w3.org/1999/xlink" x="0px" y="0px"
	 viewBox="0 0 20 20" style="enable-background:new 0 0 20 20;" xml:space="preserve">
<style type="text/css">
	.st0{fill:#FFFFFF;}
</style>
<g>
	<path class="st0" d="M10,20C4.5,20,0,15.5,0,10C0,4.5,4.5,0,10,0c5.5,0,10,4.5,10,10C20,15.5,15.5,20,10,20z M10,1c-5,0-9,4-9,9
		c0,5,4,9,9,9c5,0,9-4,9-9C19,5,15,1,10,1z"/>
	<path class="st0" d="M10.4,16.8H9.6v-1.1C7.5,15.6,6,14.3,6,12.6h1c0.1,1.2,1.1,2.1,2.6,2.2v-4.5l-0.4-0.1c-2-0.5-2.9-1.4-2.9-2.9
		c0-1.7,1.3-2.9,3.3-3V3.1h0.8v1.1c1.9,0.1,3.3,1.4,3.4,3h-1c0-1.1-1-1.9-2.3-2.1v4.3l0.5,0.1c2.2,0.5,3.1,1.5,3.1,3
		c0,1.8-1.4,3-3.6,3.2C10.4,15.7,10.4,16.8,10.4,16.8z M13,12.6c0-1.2-0.7-1.8-2.5-2.2v4.4C12,14.7,13,13.9,13,12.6L13,12.6z
		 M7.3,7.2c0,1.1,0.7,1.7,2.3,2V5.1C8.3,5.2,7.3,6.1,7.3,7.2z"/>
</g>
</svg>
