<svg xmlns="http://www.w3.org/2000/svg" width="20" height="20" viewBox="0 0 20 20">
    <g fill="none" fill-rule="evenodd">
        <circle cx="10" cy="10" r="9.5" stroke="#FFF"/>
        <path fill="#FFF" d="M10.42 16.83h-.816v-1.105C7.49 15.592 6.024 14.323 6 12.591h1.019c.086 1.199 1.12 2.069 2.585 2.202v-4.537l-.43-.117c-1.975-.502-2.9-1.442-2.9-2.907 0-1.685 1.317-2.876 3.33-3.025V3.126h.815v1.073c1.936.141 3.315 1.356 3.362 2.994h-1.019c-.04-1.082-1.019-1.944-2.343-2.061v4.262l.462.118C13.083 10.06 14 10.969 14 12.56c0 1.802-1.387 3.009-3.58 3.157v1.113zm2.546-4.192c0-1.167-.737-1.81-2.547-2.217v4.388c1.544-.07 2.547-.925 2.547-2.17zM7.3 7.177c0 1.05.713 1.684 2.303 2.037V5.132c-1.324.062-2.303.924-2.303 2.045z"/>
    </g>
</svg>
