<?xml version="1.0" encoding="utf-8"?>
<!-- Generator: Adobe Illustrator 21.1.0, SVG Export Plug-In . SVG Version: 6.00 Build 0)  -->
<svg version="1.1" id="Слой_1" xmlns="http://www.w3.org/2000/svg" xmlns:xlink="http://www.w3.org/1999/xlink" x="0px" y="0px"
	 viewBox="0 0 22 13.6" style="enable-background:new 0 0 22 13.6;" xml:space="preserve">
<style type="text/css">
	.st0{filter:url(#Adobe_OpacityMaskFilter);}
	.st1{fill:#FFFFFF;}
	.st2{mask:url(#b);fill:#C0D5B3;}
</style>
<defs>
	<filter id="Adobe_OpacityMaskFilter" filterUnits="userSpaceOnUse" x="0" y="0.3" width="21.9" height="12.8">
		<feColorMatrix  type="matrix" values="1 0 0 0 0  0 1 0 0 0  0 0 1 0 0  0 0 0 1 0"/>
	</filter>
</defs>
<mask maskUnits="userSpaceOnUse" x="0" y="0.3" width="21.9" height="12.8" id="b">
	<g class="st0">
		<path id="a" class="st1" d="M0,0.3h21.9v12.8H0V0.3z"/>
	</g>
</mask>
<path class="st2" d="M18.2,6.6c0,0,2.9-4.1,3.2-5.4c0.1-0.5-0.1-0.7-0.6-0.7h-2.5c-0.6,0-0.8,0.2-1,0.6c0,0-1.4,2.9-3,4.7
	c-0.5,0.6-0.8,0.8-1.1,0.8c-0.2,0-0.3-0.2-0.3-0.7V1.1c0-0.6-0.1-0.8-0.6-0.8h-4c-0.3,0-0.5,0.2-0.5,0.4c0,0.6,0.9,0.8,0.9,2.4v3.4
	c0,0.7,0,1-0.4,1c-0.9,0-2.9-3-4.1-6.3C4,0.5,3.8,0.3,3.1,0.3H0.6C0.3,0.3,0,0.5,0,0.9c0,0.7,0.8,3.8,3.9,7.9
	c2.1,2.8,4.8,4.3,7.2,4.3c1.5,0,1.9-0.2,1.9-0.9v-2.1c0-0.5,0.2-0.8,0.5-0.8c0.3,0,1,0.1,2.4,1.5c1.7,1.6,1.8,2.3,2.7,2.3h2.8
	c0.3,0,0.6-0.1,0.6-0.6c0-0.6-0.8-1.8-2.1-3.1c-0.5-0.7-1.4-1.4-1.6-1.8C17.8,7.2,17.9,7,18.2,6.6"/>
</svg>
