<svg xmlns="http://www.w3.org/2000/svg" xmlns:xlink="http://www.w3.org/1999/xlink" width="22" height="22" viewBox="0 0 22 22">
    <defs>
        <path id="a" d="M21.988 7.739v7.739H0V0h21.988z"/>
    </defs>
    <g fill="none" fill-rule="evenodd" transform="translate(0 3)">
        <mask id="b" fill="#fff">
            <use xlink:href="#a"/>
        </mask>
        <path fill="#C0D5B3" d="M8.724 10.593L8.723 4.41l5.941 3.103-5.94 3.08zM21.77 3.34s-.215-1.516-.875-2.184c-.836-.877-1.773-.881-2.203-.932C15.614 0 11 0 11 0h-.01S6.374 0 3.297.223c-.43.05-1.367.055-2.203.932C.434 1.823.22 3.339.22 3.339S0 5.119 0 6.901v1.67c0 1.78.22 3.56.22 3.56s.214 1.517.874 2.185c.836.877 1.935.849 2.424.94 1.76.17 7.476.222 7.476.222s4.62-.007 7.697-.23c.43-.051 1.367-.055 2.203-.932.66-.668.875-2.184.875-2.184s.22-1.781.22-3.562V6.9c0-1.78-.22-3.561-.22-3.561z" mask="url(#b)"/>
    </g>
</svg>
