<svg xmlns="http://www.w3.org/2000/svg" width="83" height="103" viewBox="0 0 83 103">
    <g fill="none" fill-rule="evenodd" stroke="#FFF" stroke-width="3">
        <path d="M41.093 100.401l-.61-.328C28.69 93.725 18.217 85.69 9.355 76.195c-5.18-5.551-7.807-12.215-7.807-19.807V6.796l1.018-.266C15.218 3.224 28.12 1.55 40.913 1.55c12.79 0 25.835 1.674 38.77 4.979l1.026.261v49.928c0 7.45-2.413 13.773-7.375 19.333-9.19 10.296-19.828 18.387-31.616 24.05l-.625.3z"/>
        <path stroke-linecap="round" stroke-linejoin="round" d="M40.605 14.849a5.383 5.383 0 1 1 0 10.766 5.383 5.383 0 1 1 0-10.766zM48.212 54.78c3.192 7.867 5.617 16.846 5.76 25.39M28.485 52.244c-6.97-10.521-.809-22.58 11.962-22.174 9.82.312 6.86 11.29 7.687 24.358"/>
        <path stroke-linecap="round" stroke-linejoin="round" d="M32.576 38.027c.697 2.234 1.404 4.463 1.715 6.983 1.16 9.432-6.266 21.884-6.49 35.463M54.75 52.347c3.643-9.026 1.542-15.096-1.416-18.798M34.064 80.243c3.91-25.162 8.8-26.095 13.405.265"/>
    </g>
</svg>
