<svg xmlns="http://www.w3.org/2000/svg" width="98" height="100" viewBox="0 0 98 100">
    <g fill="none" fill-rule="evenodd" stroke="#FFF" stroke-width="3">
        <path d="M74 68c-8.593-1.545-18.892-4.527-29.64-8.804C18.282 48.824-.555 34.779 2.284 27.829c1.324-3.244 7.134-4.37 15.603-3.593"/>
        <path stroke-linecap="round" d="M79 47c11.654 7.253 18.46 14.455 16.734 18.79-.63 1.586-2.347 2.648-4.922 3.21"/>
        <path d="M55 91v5.128c0 1.03-.95 1.872-2.112 1.872h-8.776C42.95 98 42 97.158 42 96.128V91"/>
        <path stroke-linecap="round" d="M43 73h20M43 83h20M35 83h-1M35 74h-1"/>
        <path d="M79.37 24.314c8.268-.898 13.963.112 15.321 3.272 2.934 6.806-15.37 21.015-40.883 31.74-25.51 10.723-48.568 13.896-51.5 7.09-.662-1.54-.241-3.454 1.103-5.62"/>
        <path d="M56 34a7 7 0 1 1-14.002-.002A7 7 0 0 1 56 34z"/>
        <path stroke-linejoin="round" d="M70.905 35.392A22.43 22.43 0 0 0 71 33.5c0-.638-.042-1.268-.095-1.892l-7.584-1.247a14.177 14.177 0 0 0-1.868-4.504l4.464-6.223a21.39 21.39 0 0 0-2.69-2.677l-6.215 4.46a14.202 14.202 0 0 0-4.504-1.871l-1.228-7.458A22.577 22.577 0 0 0 49.5 12c-.691 0-1.374.04-2.046.103l-1.226 7.443a14.181 14.181 0 0 0-4.503 1.87l-6.07-4.354c-.983.83-1.898 1.74-2.72 2.732l4.349 6.063a14.23 14.23 0 0 0-1.87 4.504l-7.317 1.205C28.04 32.202 28 32.847 28 33.5s.04 1.298.097 1.936l7.316 1.203a14.23 14.23 0 0 0 1.87 4.504l-4.347 6.063a21.638 21.638 0 0 0 2.72 2.732l6.069-4.355a14.133 14.133 0 0 0 4.503 1.871l1.226 7.443A21.14 21.14 0 0 0 49.5 55c.6 0 1.192-.04 1.78-.088l1.228-7.458a14.153 14.153 0 0 0 4.504-1.87l6.215 4.46a21.516 21.516 0 0 0 2.69-2.676l-4.464-6.225a14.177 14.177 0 0 0 1.868-4.504l7.584-1.247z"/>
        <path d="M12 58a5 5 0 1 1-5.001-5A5.001 5.001 0 0 1 12 58zM84 70a5 5 0 1 1-10.001-.001A5 5 0 0 1 84 70zM35.873 71.482c-.044-2.073-1.392-4.731-2.298-6.084-1.769-2.638-5.861-7.41-8.044-9.835-1.318-1.465-4.38-5.894-4.38-5.894A31.716 31.716 0 0 1 17 33.929C17 16.297 31.327 2 48.999 2 66.673 2 81 16.296 81 33.93a31.762 31.762 0 0 1-4.262 15.936s-2.943 4.232-4.26 5.697c-2.181 2.426-6.257 7.21-8.045 9.835-.919 1.35-2.33 4.011-2.372 6.084v17.401A2.125 2.125 0 0 1 59.94 91H37.995a2.125 2.125 0 0 1-2.122-2.117V71.482z"/>
    </g>
</svg>
