<svg xmlns="http://www.w3.org/2000/svg" xmlns:xlink="http://www.w3.org/1999/xlink" width="311" height="74" viewBox="0 0 311 74">
    <defs>
        <path id="a" d="M.297.224H36.88v44.811H.297z"/>
        <path id="c" d="M.48.531h12.892V18H.48z"/>
        <path id="e" d="M0 .844h37.524v43.571H0z"/>
    </defs>
    <g fill="none" fill-rule="evenodd">
        <path fill="#FFF" d="M72.486 44.483a.949.949 0 0 1-.663.716c-1.787.51-3.407.762-4.86.762-5.849 0-9.066-3.94-7.503-11.696L64.977 6.58a.935.935 0 0 1 .917-.753h5.941c.558 0 .992.487.928 1.042l-.76 6.652h4.65c.588 0 1.03.537.918 1.114l-1.134 5.824a.934.934 0 0 1-.918.756h-5.015l-2.546 12.987c-.687 3.254.985 5.026 4.427 4.785.628-.045 1.135.501 1.007 1.118l-.906 4.378zM83.829 15.676c3.855-1.724 8.227-2.77 12.104-2.77 7.202 0 13.227 3.262 11.568 11.633l-4.026 20.117a.937.937 0 0 1-.918.752h-6.589a.935.935 0 0 1-.918-1.117l3.803-19.26c.602-2.892-1.474-4.246-3.936-4.246a8.874 8.874 0 0 0-3.744.862l-4.566 23.008a.934.934 0 0 1-.917.753h-6.648a.936.936 0 0 1-.917-1.12l5.704-28.612zM119.534 27.125c1.268.431 2.854.678 4.27.678 2.215 0 4.811-1.232 5.183-3.387.463-2.646-1.63-3.692-3.723-3.692-2.215 0-4.77 1.599-5.212 3.877l-.518 2.524zm13.047 11.692c.44.331.51.981.13 1.381-4.004 4.231-8.605 5.825-12.56 5.825-6.279 0-11.96-3.878-10.474-11.389l2-9.971c1.562-7.756 8.628-11.757 15.092-11.757 6.463 0 11.83 4.001 10.28 11.572-1.755 8.926-12.592 11.08-18.664 8.617l-.337 1.539c-.52 2.586 1.681 3.879 4.328 3.879 2.032 0 4.303-.735 5.843-2.074a.924.924 0 0 1 1.161-.033l3.201 2.411zM141.184 35.785a.925.925 0 0 1 1.308-.051c3.151 3.002 8.224 3.615 9.21 1.487.852-1.91.51-3.448-2.285-4.063-7.536-1.663-9.254-7.018-7.792-12.003 1.458-4.925 5.958-8.187 12.303-8.248 2.632-.056 6.09.547 8.754 2.645a.945.945 0 0 1 .115 1.388l-4.163 4.467c-.316.338-.841.409-1.213.132-2.014-1.498-6.591-2.361-7.492.785-.54 1.846.373 3.078 3.404 3.878 3.94 1.047 8.529 3.63 7.287 10.095-1.332 6.955-6.847 9.727-13.558 9.727-4.198 0-7.77-1.272-10.028-4.81-.225-.351-.165-.82.12-1.126l4.03-4.303zM167.05 35.785a.924.924 0 0 1 1.307-.051c3.152 3.002 8.224 3.614 9.212 1.487.85-1.91.509-3.448-2.286-4.063-7.535-1.663-9.254-7.018-7.791-12.003 1.457-4.925 5.957-8.187 12.3-8.248 2.633-.056 6.09.547 8.755 2.645a.945.945 0 0 1 .115 1.388l-4.163 4.467c-.315.338-.84.409-1.212.132-2.015-1.498-6.591-2.361-7.492.785-.54 1.846.373 3.078 3.404 3.878 3.94 1.047 8.528 3.63 7.288 10.095-1.333 6.955-6.848 9.727-13.56 9.727-4.197 0-7.77-1.272-10.027-4.81-.226-.351-.166-.82.12-1.126l4.03-4.303z"/>
        <g transform="translate(190 .776)">
            <mask id="b" fill="#fff">
                <use xlink:href="#a"/>
            </mask>
            <path fill="#7DCC4A" d="M15.803 36.233c-3.815 0-6.965-2.093-6.215-5.725l3.119-15.573c.757-3.755 4.933-5.848 8.872-5.848 2.89 0 5.715 1.204 7.016 3.794a.933.933 0 0 0 1.262.421l6.509-3.362c.405-.208.615-.684.469-1.114C34.852 2.946 29.275.223 23.72.223 15.104.223 5.727 5.147 3.795 14.69L.6 30.51c-1.935 9.602 5.678 14.526 14.11 14.526 5.519 0 11.86-2.799 16.725-8.344.377-.428.265-1.099-.217-1.402l-5.332-3.345c-.407-.255-.928-.149-1.236.22-2.347 2.794-5.818 4.07-8.848 4.07" mask="url(#b)"/>
        </g>
        <path fill="#7DCC4A" d="M243.281 23.714l-2.063 10.833c-.417 2.032-2.895 3.447-4.865 3.447-2.03 0-3.986-1.415-3.568-3.447l2.063-10.833c.417-2.031 2.817-3.14 4.848-3.14 1.97 0 4.003 1.109 3.585 3.14m-1.989-11.02c-6.406.063-13.564 3.819-15.02 11.389l-2.04 10.402c-1.524 7.696 4.254 11.266 10.591 11.327 6.404-.061 13.43-3.631 14.954-11.327l2.04-10.402c1.456-7.57-4.189-11.326-10.525-11.388M302.432 24.206c-.364 2.155-2.954 3.386-5.17 3.386-1.416 0-3.002-.246-4.272-.677l.505-2.524c.431-2.278 2.98-3.877 5.197-3.877 2.092 0 4.19 1.046 3.74 3.692m-2.272-11.51c-6.463 0-13.512 4-15.04 11.756l-1.954 9.972c-1.452 7.51 4.247 11.387 10.526 11.387 3.955 0 8.548-1.593 12.532-5.822.379-.4.31-1.049-.132-1.38l-3.216-2.414a.924.924 0 0 0-1.16.035c-1.536 1.338-3.803 2.073-5.834 2.073-2.646 0-4.853-1.293-4.344-3.879l.33-1.538c6.084 2.462 16.91.307 18.623-8.618 1.518-7.572-3.868-11.573-10.33-11.573M269.825 38.799c-.947.432-2.13.678-3.237.678-2.832 0-5.355-1.17-4.605-4.801l2.183-10.832c.593-3.015 3.616-4.307 6.017-4.307 1.354 0 2.384.307 3.22.8l-3.578 18.462zm7.134-36.331l-2.282 11.345c-1.5-.738-3.265-1.108-5.112-1.108-5.912.062-12.42 3.2-13.878 10.832l-2.144 11.262c-1.636 8.678 4.393 11.017 11.103 11.017 4.001 0 8.73-.924 12.87-2.401l8.177-40.578a.935.935 0 0 0-.917-1.12h-6.9a.935.935 0 0 0-.917.75zM54.377 32.877c-2.181 9.505-11.73 28.713-45.47 36.526C36.545 53.662 38.222 28.864 32.19 17.655c9.703-4.724 4.927 8.306 18.526 10.299 2.808.411 4.27 2.261 3.66 4.923M53.214 2.73c4.513 1.443 6.959 6.896 5.464 12.178-1.495 5.281-6.365 8.393-10.878 6.949-4.513-1.444-6.96-6.896-5.464-12.177C43.83 4.398 48.7 1.287 53.214 2.73M128.914 58.863c1.454 0 2.669-.65 2.984-2.28.276-1.353-.742-2.005-2.145-2.005h-4.012l-.838 4.285h4.011zm-1.54 7.896c1.902.05 3.422-.677 3.805-2.607.382-1.93-.753-2.707-2.76-2.682h-4.012l-1.044 5.29h4.011zm5.085-6.717c1.759.827 1.946 2.43 1.597 4.211-.843 3.91-3.752 5.287-7.238 5.287h-6.893l3.466-17.77h6.919c2.958 0 5.074 1.63 4.441 4.913-.242 1.203-.997 2.606-2.292 3.36z"/>
        <g transform="translate(134 55.776)">
            <mask id="d" fill="#fff">
                <use xlink:href="#c"/>
            </mask>
            <path fill="#7DCC4A" d="M4.538 11.282a5.424 5.424 0 0 0 1.964.302c1.353 0 2.686-.527 3.09-1.93l.935-4.662c.31-1.528-.912-2.106-2.343-2.08-.676 0-1.436.15-2.079.427l-1.567 7.943zM3.697 1.56C5.236.932 7.139.531 8.843.531c2.782.024 5.076 1.152 4.414 4.511l-.907 4.612c-.589 2.932-3.477 4.386-6.033 4.36-.802 0-1.571-.15-2.231-.45L3.238 18H.48L3.697 1.56z" mask="url(#d)"/>
        </g>
        <path fill="#7DCC4A" d="M151.934 61.92c.542.177 1.506.428 2.559.428 1.453 0 2.346-.752 2.453-1.755.099-.877-.56-1.68-1.988-1.68-1.254 0-2.55.779-2.825 2.107l-.2.9zm5.972 5.34c-1.42 1.653-3.325 2.53-5.004 2.53-2.506 0-4.901-1.578-4.31-4.56l.84-4.311c.598-3.082 3.439-4.611 6.022-4.611 2.582 0 4.778 1.529 4.185 4.536-.488 2.48-2.733 3.634-5.44 3.634a7.2 7.2 0 0 1-2.68-.501l-.22 1.253c-.273 1.303.742 2.004 1.969 2.03.976.025 2.202-.401 2.954-1.304l1.684 1.304zM172.42 60.919l-1.202 1.805-3.212 5.037h-1.755L165 62.724l-.527-1.805-.457 2.832-1.123 5.789h-2.758l2.549-12.981h3.159l1.95 7.794 4.969-7.794h3.159l-2.55 12.981h-2.757l1.15-5.813zM182.795 58.738c-1.38 0-2.264.576-2.535 1.854-.278 1.404.416 2.005 1.97 2.005h2.457l.74-3.859h-2.632zm.208 5.74l-4.768 5.062h-3.21l5.104-5.212c-1.766-.277-2.975-1.529-2.523-3.785.56-2.882 2.802-3.985 5.61-3.985h5.39l-2.548 12.982H183.3l1.007-5.063h-1.304zM206.314 60.919l-1.203 1.805-3.213 5.037h-1.754l-1.25-5.037-.527-1.805-.458 2.832-1.123 5.789h-2.758l2.55-12.981h3.158l1.951 7.794 4.97-7.794h3.157l-2.549 12.981h-2.758l1.151-5.813zM214.03 61.92c.541.177 1.505.428 2.558.428 1.455 0 2.348-.752 2.455-1.755.097-.877-.56-1.68-1.989-1.68-1.254 0-2.55.779-2.824 2.107l-.2.9zm5.972 5.34c-1.42 1.653-3.325 2.53-5.004 2.53-2.507 0-4.902-1.578-4.31-4.56l.84-4.311c.597-3.082 3.438-4.611 6.022-4.611 2.582 0 4.778 1.529 4.186 4.536-.488 2.48-2.733 3.634-5.44 3.634a7.204 7.204 0 0 1-2.68-.501l-.22 1.253c-.273 1.303.74 2.004 1.967 2.03.977.025 2.204-.401 2.956-1.304l1.683 1.304zM226.072 64.026l-1.082 5.514h-2.758l2.55-12.982h2.756l-.95 4.937h4.738l.975-4.937h2.733l-2.548 12.982h-2.732l1.082-5.514zM241.908 58.738c-1.379 0-2.264.576-2.535 1.854-.278 1.404.416 2.005 1.971 2.005h2.457l.74-3.859h-2.633zm.208 5.74l-4.767 5.062h-3.209l5.102-5.212c-1.766-.277-2.975-1.529-2.523-3.785.56-2.882 2.802-3.985 5.61-3.985h5.39l-2.548 12.982h-2.758l1.007-5.063h-1.304zM250.389 57.686c1.299-.802 3.135-1.378 4.74-1.378 1.528.024 2.9.602 3.408 1.829a5.368 5.368 0 0 1 4.063-1.83c2.332 0 4.318 1.68 3.76 4.537l-1.685 8.696h-2.732l1.678-8.595c.29-1.178-.517-1.955-1.595-1.955-1.078 0-2.455.852-2.66 1.854l-1.686 8.696h-2.707l1.717-8.822c.214-1.152-.733-1.703-1.885-1.728-.676-.026-1.44.175-2.061.526L250.81 69.54h-2.707l2.285-11.854zM271.4 63.501l-.407 1.93c-.246 1.278.923 1.904 2.1 1.904 1.254 0 2.623-.727 2.901-2.131.316-1.628-.473-2.33-1.902-2.33-.852 0-1.973.325-2.692.627zm.391-2.056c.873-.376 2.195-.727 3.223-.727 3.01 0 4.162 1.804 3.632 4.587-.56 2.883-3.256 4.461-6.064 4.486-2.657-.025-4.883-1.454-4.293-4.411l1.691-8.821h2.758l-.947 4.886zM281.154 60.769c.592-3.007 3.456-4.461 5.988-4.461 2.031 0 4.16.928 4.373 3.408l-2.684.952c-.113-1.152-1.113-1.653-2.189-1.678-1.203 0-2.516.627-2.729 1.754l-.902 4.51c-.214 1.154.8 1.88 2.053 1.856 1.055-.026 2.293-.652 2.832-1.78l2.323 1.052c-1.19 2.482-3.723 3.409-5.754 3.409-2.532 0-4.778-1.554-4.185-4.561l.874-4.461zM298.163 58.738c-1.379 0-2.263.576-2.534 1.854-.279 1.404.416 2.005 1.97 2.005h2.457l.739-3.859h-2.632zm.209 5.74l-4.768 5.062h-3.209l5.102-5.212c-1.765-.277-2.974-1.529-2.523-3.785.561-2.882 2.803-3.985 5.61-3.985h5.391l-2.549 12.982h-2.758l1.008-5.063h-1.304z"/>
        <g transform="translate(0 .776)">
            <mask id="f" fill="#fff">
                <use xlink:href="#e"/>
            </mask>
            <path fill="#FFF" d="M13.773 19.245H27.63c.587 0 1.03.535.92 1.111l-1.353 7.053a.936.936 0 0 1-.919.76H12.062L9.058 43.656a.935.935 0 0 1-.918.758H.935a.935.935 0 0 1-.918-1.113L6.8 8.273A9.172 9.172 0 0 1 15.805.844h20.782a.935.935 0 0 1 .92 1.113l-1.342 6.93a.937.937 0 0 1-.919.757H15.643l-1.87 9.601z" mask="url(#f)"/>
        </g>
    </g>
</svg>
