<svg xmlns="http://www.w3.org/2000/svg" width="89" height="102" viewBox="0 0 89 102">
    <g fill="none" fill-rule="evenodd" stroke="#FFF" stroke-linecap="round" stroke-linejoin="round" stroke-width="3">
        <path d="M36.829 34.388c9.178 0 16.614 7.44 16.614 16.615 0 9.176-7.436 16.615-16.614 16.615-9.176 0-16.615-7.44-16.615-16.615 0-9.176 7.44-16.615 16.615-16.615zM20.975 2.22c6.315 0 11.434 5.12 11.434 11.434 0 6.315-5.12 11.434-11.434 11.434-6.315 0-11.434-5.12-11.434-11.434 0-6.314 5.12-11.434 11.434-11.434zM78.773 53.747a8.689 8.689 0 0 1 0 17.375 8.69 8.69 0 0 1-8.69-8.687 8.69 8.69 0 0 1 8.69-8.688zM15.939 72.282c7.578 0 13.72 6.144 13.72 13.72 0 7.576-6.142 13.72-13.72 13.72-7.576 0-13.72-6.144-13.72-13.72 0-7.576 6.144-13.72 13.72-13.72zM22.822 74.144l6.047-8.556M52.959 54.959l17.124 7.476M30.124 35.8l-5.768-11.222"/>
        <path d="M35 41.552a4.88 4.88 0 0 1 4.878 4.878A4.88 4.88 0 0 1 35 51.308a4.88 4.88 0 0 1-4.879-4.878A4.88 4.88 0 0 1 35 41.552z"/>
    </g>
</svg>
