<svg xmlns="http://www.w3.org/2000/svg" width="52" height="46" viewBox="0 0 52 46">
    <g fill="none" fill-rule="evenodd" stroke="#7DCC4A" stroke-linecap="round" stroke-linejoin="round" stroke-width="2">
        <path d="M36.942 26.17c-2.463-.54-5.327.584-7.358.541-2.03-.042-4.271-1.532-6.421-1.147-2.15.383-3.187 2.779-5.273 3.201-2.085.423-3.65-1.218-6.845-.86l-8.347 1.569M44.622 20.811a3.31 3.31 0 1 1 0 6.622 3.31 3.31 0 0 1 0-6.622zM50.437 31.29l-7.473-.644c-2.15-.582-4.014-2.984-6.022-4.475M17.89 28.765v8.896M27.945 26.438V38.03M28.984 1.475a3.31 3.31 0 1 1 0 6.621 3.31 3.31 0 0 1 0-6.621zM25.669 14.726c-.068 1.442-.585 3.633-.27 4.852.344 1.334 1.56 1.714 2.513 3.518M4.087 34.093H17.89v4.221h10.054v-4.221h19.17a2.62 2.62 0 0 1 2.612 2.612v5.187a2.62 2.62 0 0 1-2.612 2.612H4.087a2.62 2.62 0 0 1-2.612-2.612v-5.187a2.62 2.62 0 0 1 2.612-2.612zM24.667 10.971c-5.72 6.934-2.23 7.944-5.469 13.392M34.68 22.135c-3.54-5.302-2.812-3.724-2.614-9.29"/>
    </g>
</svg>
