<svg xmlns="http://www.w3.org/2000/svg" width="104" height="68" viewBox="0 0 104 68">
    <g fill="none" fill-rule="evenodd" stroke="#FFF" stroke-linecap="round" stroke-width="3">
        <path d="M37.249 13.392c.027-6.303 5.116-11.373 11.363-11.373 6.266 0 11.364 5.097 11.364 11.364 0 6.261-5.098 11.359-11.364 11.359h-27.83M95.056 49.271c3.961.024 6.883 3.159 6.925 6.888-.097 2.393-.84 4.026-2.333 5.227-1.122.914-2.686 1.573-4.346 1.568M46.301 65.548h-9.244M76.53 9.528h9.467M80.782 24.725l4.935.014c3.776 0 6.73 2.954 6.73 6.725.019 2.097-.719 3.739-2.245 5.047-1.206 1.03-2.959 1.697-4.476 1.697H9.186c-3.96 0-7.184 3.224-7.184 7.185.079 2.23 1.02 4.24 2.588 5.524 1.336 1.104 3.112 1.702 4.601 1.665h60.292c3.767 0 6.721 2.95 6.73 6.712-.023 2.221-.779 3.84-2.374 5.125-1.401 1.132-3.205 1.572-4.323 1.61h-4.67"/>
    </g>
</svg>
