<svg xmlns="http://www.w3.org/2000/svg" xmlns:xlink="http://www.w3.org/1999/xlink" width="729" height="450" viewBox="0 0 729 450">
    <defs>
        <path id="a" d="M0 .04h728.42V450H0z"/>
        <path id="c" d="M0 450h729V0H0z"/>
    </defs>
    <g fill="none" fill-rule="evenodd">
        <mask id="b" fill="#fff">
            <use xlink:href="#a"/>
        </mask>
        <path fill="#94C01F" d="M18.233.04h691.953c10.072 0 18.235 8.155 18.235 18.215v413.53c0 10.06-8.163 18.215-18.235 18.215H18.233C8.16 450 0 441.845 0 431.785V18.255C0 8.195 8.16.04 18.233.04" mask="url(#b)"/>
        <path fill="#403C3A" d="M57.186 287h106.626a.187.187 0 0 0 .188-.185v-155.63a.187.187 0 0 0-.188-.185h-50.778v127.667a.185.185 0 0 1-.187.185h-4.694a.186.186 0 0 1-.189-.185V131H57.186a.187.187 0 0 0-.186.185v155.63c0 .101.084.185.186.185M135.807 343h-23.62c-.106 0-.187-29.82-.187-29.927v-22.879c0-.107.08-.194.187-.194h23.62c.108 0 .193.087.193.194v22.879c0 .107-.085 29.927-.193 29.927"/>
        <path fill="#403C3A" d="M130.805 277h-14.612a.194.194 0 0 0-.193.193v14.612c0 .108.087.195.193.195h14.612a.194.194 0 0 0 .195-.195v-14.612a.194.194 0 0 0-.195-.193M302.802 210h-137.61a.192.192 0 0 1-.192-.193v-78.614c0-.106.085-.193.192-.193h137.61c.111 0 .198.087.198.193v78.614a.195.195 0 0 1-.198.193M528.58 149h-64.55c-.23 0-.42.19-.42.424v40.02c0 .235.19.425.42.425h7.993c.231 0 .42.19.42.425v17.425a.421.421 0 0 1-.42.424h-23.601c-.23 0-.422.19-.422.427v45.004c0 .236.192.426.422.426h80.158c.232 0 .42-.19.42-.426v-104.15a.423.423 0 0 0-.42-.424"/>
        <path fill="#403C3A" d="M542.808 222h-24.62a.192.192 0 0 1-.188-.196v-42.608c0-.108.085-.196.189-.196h24.619c.107 0 .192.088.192.196v42.608a.193.193 0 0 1-.192.196"/>
        <path fill="#FEFEFE" d="M543.421 179.334v42.594"/>
        <path stroke="#94C01F" stroke-width=".378" d="M543.421 179.334v42.594"/>
        <path fill="#FEFEFE" d="M540.374 179.334v42.594"/>
        <path stroke="#94C01F" stroke-width=".378" d="M540.374 179.334v42.594"/>
        <path fill="#FEFEFE" d="M536.958 179.334v42.594"/>
        <path stroke="#94C01F" stroke-width=".378" d="M536.958 179.334v42.594"/>
        <path fill="#FEFEFE" d="M533.28 179.334v42.594"/>
        <path stroke="#94C01F" stroke-width=".378" d="M533.28 179.334v42.594"/>
        <path fill="#FEFEFE" d="M530.234 179.334v42.594"/>
        <path stroke="#94C01F" stroke-width=".378" d="M530.234 179.334v42.594"/>
        <path fill="#403C3A" d="M408.8 190h-52.602a.196.196 0 0 1-.198-.194v-40.612c0-.107.088-.194.198-.194H408.8c.112 0 .2.087.2.194v40.612a.196.196 0 0 1-.2.194M346.8 167h-41.603a.2.2 0 0 1-.197-.202v-17.596a.2.2 0 0 1 .197-.202h41.602a.2.2 0 0 1 .201.202v17.596a.2.2 0 0 1-.2.202M346.8 187h-41.603a.2.2 0 0 1-.197-.202v-17.596a.2.2 0 0 1 .197-.202h41.602a.2.2 0 0 1 .201.202v17.596a.2.2 0 0 1-.2.202"/>
        <path fill="#403C3A" d="M305.807 162h-4.618a.188.188 0 0 1-.189-.187v-9.626c0-.103.085-.187.189-.187h4.618a.19.19 0 0 1 .193.187v9.626a.19.19 0 0 1-.193.187M305.807 183h-4.618a.188.188 0 0 1-.189-.187v-9.626c0-.103.085-.187.189-.187h4.618a.19.19 0 0 1 .193.187v9.626a.19.19 0 0 1-.193.187M302.803 267H287.19a.192.192 0 0 1-.189-.192v-51.616c0-.106.087-.192.19-.192h15.613c.11 0 .197.086.197.192v51.616a.194.194 0 0 1-.197.192M470.804 206H339.198a.2.2 0 0 1-.198-.204v-13.592a.2.2 0 0 1 .198-.204h131.606a.2.2 0 0 1 .196.204v13.592a.2.2 0 0 1-.196.204"/>
        <path fill="#403C3A" d="M353.801 192h-14.608a.195.195 0 0 0-.193.194v109.612c0 .109.088.194.193.194h14.608a.195.195 0 0 0 .199-.194V192.194a.196.196 0 0 0-.199-.194M310.194 322h43.616c.104 0 .19-.094.19-.208v-17.584c0-.114-.086-.208-.19-.208h-43.616c-.108 0-.194.094-.194.208v17.584c0 .114.086.208.194.208"/>
        <path fill="#403C3A" d="M340.798 246h-30.6a.196.196 0 0 1-.198-.193v-14.612c0-.108.089-.195.198-.195h30.6c.113 0 .202.087.202.195v14.612a.197.197 0 0 1-.202.193M444.802 190h-33.61a.197.197 0 0 1-.192-.197v-40.606c0-.109.09-.197.192-.197h33.61c.11 0 .198.088.198.197v40.606a.197.197 0 0 1-.198.197M283.793 239h-14.592c-.11 0-.201-.09-.201-.202v-10.596c0-.111.091-.202.2-.202h14.593c.116 0 .207.09.207.202v10.596a.204.204 0 0 1-.207.202"/>
        <path fill="#403C3A" d="M287.772 236h-4.549c-.123 0-.223-.085-.223-.188v-5.622c0-.104.1-.19.223-.19h4.55c.127 0 .227.086.227.19v5.622c0 .103-.1.188-.228.188M310.79 245h-8.58c-.117 0-.21-.083-.21-.184v-10.632c0-.101.093-.184.21-.184h8.58c.117 0 .21.083.21.184v10.632c0 .101-.093.184-.21.184M283.793 253h-14.592c-.11 0-.201-.09-.201-.202v-10.596c0-.111.091-.202.2-.202h14.593c.116 0 .207.09.207.202v10.596a.204.204 0 0 1-.207.202"/>
        <path fill="#403C3A" d="M287.772 250h-4.549c-.123 0-.223-.085-.223-.188v-5.622c0-.105.1-.19.223-.19h4.55c.127 0 .227.085.227.19v5.622c0 .103-.1.188-.228.188M342 304.809v-5.616c0-.107.086-.193.197-.193h8.608c.109 0 .195.086.195.193v5.616a.193.193 0 0 1-.195.191h-8.608a.193.193 0 0 1-.197-.191M381 193.809v-5.618c0-.105.086-.191.195-.191h22.614a.19.19 0 0 1 .191.191v5.618a.19.19 0 0 1-.19.191h-22.615a.192.192 0 0 1-.195-.191M416 193.809v-5.618c0-.105.086-.191.193-.191h22.614a.19.19 0 0 1 .193.191v5.618a.19.19 0 0 1-.193.191h-22.614a.192.192 0 0 1-.193-.191M179.805 242h-14.61a.195.195 0 0 1-.195-.195v-26.61c0-.108.087-.195.195-.195h14.61c.108 0 .195.087.195.195v26.61a.195.195 0 0 1-.195.195M197.803 228h-14.608a.198.198 0 0 1-.195-.201V215.2c0-.11.087-.201.195-.201h14.608c.11 0 .197.09.197.201V227.8a.199.199 0 0 1-.197.201"/>
        <path fill="#403C3A" d="M200.794 224h-3.592a.206.206 0 0 1-.202-.209v-4.582c0-.115.092-.209.202-.209h3.592c.114 0 .206.094.206.209v4.582a.207.207 0 0 1-.206.209M183.794 224h-3.592a.208.208 0 0 1-.202-.209v-4.582c0-.115.094-.209.202-.209h3.592c.114 0 .206.094.206.209v4.582a.207.207 0 0 1-.206.209M200.794 238h-3.592a.206.206 0 0 1-.202-.209v-4.582c0-.115.092-.209.202-.209h3.592c.114 0 .206.094.206.209v4.582a.207.207 0 0 1-.206.209"/>
        <path fill="#403C3A" d="M197.803 242h-14.608a.198.198 0 0 1-.195-.201V229.2c0-.11.087-.201.195-.201h14.608c.11 0 .197.09.197.201V241.8a.199.199 0 0 1-.197.201M215.805 228h-14.61a.198.198 0 0 1-.195-.201V215.2c0-.11.087-.201.195-.201h14.61c.108 0 .195.09.195.201V227.8a.198.198 0 0 1-.195.201M215.805 242h-14.61a.198.198 0 0 1-.195-.201V229.2c0-.11.087-.201.195-.201h14.61c.108 0 .195.09.195.201V241.8a.198.198 0 0 1-.195.201M213.805 267h-48.618c-.105 0-.187-.089-.187-.198v-22.604c0-.11.082-.198.187-.198h48.618c.11 0 .195.089.195.198v22.604a.195.195 0 0 1-.195.198"/>
        <path fill="#403C3A" d="M188 245.796v-3.592c0-.112.094-.204.21-.204h4.577c.12 0 .213.092.213.204v3.592a.208.208 0 0 1-.213.204h-4.576a.207.207 0 0 1-.211-.204M202 269.796v-3.592c0-.112.094-.204.213-.204h4.576c.117 0 .211.092.211.204v3.592a.207.207 0 0 1-.21.204h-4.577a.208.208 0 0 1-.213-.204M188 215.809v-5.616c0-.107.094-.193.21-.193h4.577c.12 0 .213.086.213.193v5.616c0 .105-.094.191-.213.191h-4.576c-.117 0-.211-.086-.211-.191M186 229.796v-3.592c0-.112.091-.204.207-.204h10.588c.114 0 .205.092.205.204v3.592a.204.204 0 0 1-.205.204h-10.588a.205.205 0 0 1-.207-.204M232.81 242h-15.623a.191.191 0 0 1-.187-.195v-26.61c0-.108.084-.195.187-.195h15.623c.106 0 .19.087.19.195v26.61a.192.192 0 0 1-.19.195M251.799 228h-15.602a.2.2 0 0 1-.197-.201V215.2a.2.2 0 0 1 .197-.201H251.8a.2.2 0 0 1 .201.201V227.8a.2.2 0 0 1-.201.201"/>
        <path fill="#403C3A" d="M254.794 224H251.2a.206.206 0 0 1-.2-.209v-4.582c0-.115.092-.209.2-.209h3.594c.114 0 .206.094.206.209v4.582a.207.207 0 0 1-.206.209M237.794 224h-3.59a.207.207 0 0 1-.204-.209v-4.582c0-.115.092-.209.204-.209h3.59c.114 0 .206.094.206.209v4.582a.207.207 0 0 1-.206.209M254.794 238H251.2a.206.206 0 0 1-.2-.209v-4.582c0-.115.092-.209.2-.209h3.594c.114 0 .206.094.206.209v4.582a.207.207 0 0 1-.206.209"/>
        <path fill="#403C3A" d="M251.799 242h-15.602a.2.2 0 0 1-.197-.201V229.2a.2.2 0 0 1 .197-.201H251.8a.2.2 0 0 1 .201.201V241.8a.2.2 0 0 1-.201.201M266.8 228h-12.602a.2.2 0 0 1-.198-.201V215.2a.2.2 0 0 1 .198-.201H266.8a.2.2 0 0 1 .2.201V227.8a.2.2 0 0 1-.2.201M266.8 242h-12.602a.2.2 0 0 1-.198-.201V229.2a.2.2 0 0 1 .198-.201H266.8a.2.2 0 0 1 .2.201V241.8a.2.2 0 0 1-.2.201M265.805 267h-48.618c-.105 0-.187-.089-.187-.198v-22.604c0-.11.082-.198.187-.198h48.618c.11 0 .195.089.195.198v22.604a.195.195 0 0 1-.195.198"/>
        <path fill="#403C3A" d="M240 245.796v-3.592c0-.112.094-.204.21-.204h4.577c.12 0 .213.092.213.204v3.592a.208.208 0 0 1-.213.204h-4.576a.207.207 0 0 1-.211-.204M253 269.796v-3.592c0-.112.094-.204.213-.204h4.576c.117 0 .211.092.211.204v3.592a.207.207 0 0 1-.21.204h-4.577a.208.208 0 0 1-.213-.204M240 215.809v-5.616c0-.107.094-.193.21-.193h4.577c.12 0 .213.086.213.193v5.616c0 .105-.094.191-.213.191h-4.576c-.117 0-.211-.086-.211-.191M239 229.796v-3.592c0-.112.086-.204.193-.204h8.368c.105 0 2.439.092 2.439.204v3.592c0 .112-2.334.204-2.439.204h-8.368a.198.198 0 0 1-.193-.204M517.8 288h-20.607a.192.192 0 0 1-.193-.189v-20.62c0-.106.088-.191.193-.191h20.608c.111 0 .199.085.199.19v20.621a.193.193 0 0 1-.2.189M528.805 264h-43.618a.192.192 0 0 1-.187-.194v-9.612c0-.107.086-.194.187-.194h43.618c.11 0 .195.087.195.194v9.612a.194.194 0 0 1-.195.194M528.805 301h-43.618a.192.192 0 0 1-.187-.194v-9.612c0-.107.086-.194.187-.194h43.618c.11 0 .195.087.195.194v9.612a.194.194 0 0 1-.195.194"/>
        <path fill="#403C3A" d="M520 299.805v-45.61c0-.107.087-.195.196-.195h9.608c.109 0 .196.088.196.195v45.61a.195.195 0 0 1-.196.195h-9.608a.195.195 0 0 1-.196-.195M485 299.805v-45.61c0-.107.087-.195.196-.195h9.61c.107 0 .194.088.194.195v45.61a.195.195 0 0 1-.194.195h-9.61a.195.195 0 0 1-.196-.195M463.805 285H448.19a.192.192 0 0 1-.189-.194v-31.612c0-.107.086-.194.189-.194h15.616c.11 0 .195.087.195.194v31.612a.194.194 0 0 1-.195.194M463.805 302H448.19c-.103 0-.189-.091-.189-.203v-12.594c0-.112.086-.203.189-.203h15.616c.11 0 .195.091.195.203v12.594a.198.198 0 0 1-.195.203M477.805 300H467.19a.193.193 0 0 1-.191-.194v-26.612c0-.107.086-.194.191-.194h10.614c.11 0 .195.087.195.194v26.612a.194.194 0 0 1-.195.194M477.805 270H467.19a.191.191 0 0 1-.191-.191v-15.618c0-.105.086-.191.191-.191h10.614c.11 0 .195.086.195.191v15.618a.192.192 0 0 1-.195.191"/>
        <path fill="#403C3A" d="M472.812 265h-5.63a.186.186 0 0 1-.182-.191v-15.618c0-.105.08-.191.182-.191h5.63a.19.19 0 0 1 .188.191v15.618a.19.19 0 0 1-.188.191"/>
        <path fill="#403C3A" d="M475.812 279h-5.63c-.102 0-.182-.086-.182-.193v-15.616c0-.107.08-.191.182-.191h5.63c.105 0 .188.084.188.191v15.616a.19.19 0 0 1-.188.193M462 281.814v-5.628c0-.104.096-.186.218-.186h7.566c.12 0 .216.082.216.186v5.628c0 .103-.096.186-.216.186h-7.566c-.122 0-.218-.083-.218-.186M462 296.814v-5.628c0-.104.096-.186.218-.186h7.566c.12 0 .216.082.216.186v5.628c0 .103-.096.186-.216.186h-7.566c-.122 0-.218-.083-.218-.186M322.55 253h-12.098c-.248 0-.452.19-.452.425v55.15c0 .235.204.425.452.425h12.098c.248 0 .45-.19.45-.425v-55.15c0-.235-.202-.425-.45-.425M324 253.425v55.15c0 .235.204.425.45.425h12.096c.248 0 .454-.19.454-.425v-55.15c0-.235-.206-.425-.454-.425H324.45c-.246 0-.45.19-.45.425M445.803 207h-89.608a.194.194 0 0 0-.195.194v92.612c0 .107.087.194.195.194h89.608c.11 0 .197-.087.197-.194v-92.612a.194.194 0 0 0-.197-.194"/>
        <path fill="#FEFEFE" d="M309.43 263.332h13.529"/>
        <path stroke="#94C01F" stroke-width=".378" d="M309.43 263.332h13.529"/>
        <path fill="#FEFEFE" d="M309.43 266.707h13.529"/>
        <path stroke="#94C01F" stroke-width=".378" d="M309.43 266.707h13.529"/>
        <path fill="#FEFEFE" d="M309.43 270.093h13.529"/>
        <path stroke="#94C01F" stroke-width=".378" d="M309.43 270.093h13.529"/>
        <path fill="#FEFEFE" d="M309.43 273.14h13.529"/>
        <path stroke="#94C01F" stroke-width=".378" d="M309.43 273.14h13.529"/>
        <path fill="#FEFEFE" d="M309.43 276.831h13.529"/>
        <path stroke="#94C01F" stroke-width=".378" d="M309.43 276.831h13.529"/>
        <path fill="#FEFEFE" d="M309.43 280.232h13.529"/>
        <path stroke="#94C01F" stroke-width=".378" d="M309.43 280.232h13.529"/>
        <path fill="#FEFEFE" d="M309.43 283.28h13.529"/>
        <path stroke="#94C01F" stroke-width=".378" d="M309.43 283.28h13.529"/>
        <path fill="#FEFEFE" d="M309.43 286.956h13.529"/>
        <path stroke="#94C01F" stroke-width=".378" d="M309.43 286.956h13.529"/>
        <path fill="#FEFEFE" d="M324.106 263.332h13.32"/>
        <path stroke="#94C01F" stroke-width=".378" d="M324.106 263.332h13.32"/>
        <path fill="#FEFEFE" d="M324.106 266.707h13.32"/>
        <path stroke="#94C01F" stroke-width=".378" d="M324.106 266.707h13.32"/>
        <path fill="#FEFEFE" d="M324.106 270.093h13.32"/>
        <path stroke="#94C01F" stroke-width=".378" d="M324.106 270.093h13.32"/>
        <path fill="#FEFEFE" d="M324.106 273.14h13.32"/>
        <path stroke="#94C01F" stroke-width=".378" d="M324.106 273.14h13.32"/>
        <path fill="#FEFEFE" d="M324.106 276.831h13.32"/>
        <path stroke="#94C01F" stroke-width=".378" d="M324.106 276.831h13.32"/>
        <path fill="#FEFEFE" d="M324.106 280.232h13.32"/>
        <path stroke="#94C01F" stroke-width=".378" d="M324.106 280.232h13.32"/>
        <path fill="#FEFEFE" d="M324.106 283.28h13.32"/>
        <path stroke="#94C01F" stroke-width=".378" d="M324.106 283.28h13.32"/>
        <path fill="#FEFEFE" d="M324.106 286.956h13.32"/>
        <path stroke="#94C01F" stroke-width=".378" d="M324.106 286.956h13.32"/>
        <path fill="#FEFEFE" d="M481.391 267.401h13.528"/>
        <path stroke="#94C01F" stroke-width=".378" d="M481.391 267.401h13.528"/>
        <path fill="#FEFEFE" d="M481.391 271.064h13.528"/>
        <path stroke="#94C01F" stroke-width=".378" d="M481.391 271.064h13.528"/>
        <path fill="#FEFEFE" d="M481.391 273.494h13.528"/>
        <path stroke="#94C01F" stroke-width=".378" d="M481.391 273.494h13.528"/>
        <path fill="#FEFEFE" d="M481.391 277.54h13.528"/>
        <path stroke="#94C01F" stroke-width=".378" d="M481.391 277.54h13.528"/>
        <path fill="#FEFEFE" d="M481.391 281.189h13.528"/>
        <path stroke="#94C01F" stroke-width=".378" d="M481.391 281.189h13.528"/>
        <path fill="#FEFEFE" d="M481.391 283.634h13.528"/>
        <path stroke="#94C01F" stroke-width=".378" d="M481.391 283.634h13.528"/>
        <path fill="#FEFEFE" d="M481.391 287.68h13.528"/>
        <path stroke="#94C01F" stroke-width=".378" d="M481.391 287.68h13.528"/>
        <path fill="#FEFEFE" d="M518.867 267.401h13.528"/>
        <path stroke="#94C01F" stroke-width=".378" d="M518.867 267.401h13.528"/>
        <path fill="#FEFEFE" d="M518.867 271.064h13.528"/>
        <path stroke="#94C01F" stroke-width=".378" d="M518.867 271.064h13.528"/>
        <path fill="#FEFEFE" d="M518.867 273.494h13.528"/>
        <path stroke="#94C01F" stroke-width=".378" d="M518.867 273.494h13.528"/>
        <path fill="#FEFEFE" d="M518.867 277.54h13.528"/>
        <path stroke="#94C01F" stroke-width=".378" d="M518.867 277.54h13.528"/>
        <path fill="#FEFEFE" d="M518.867 281.189h13.528"/>
        <path stroke="#94C01F" stroke-width=".378" d="M518.867 281.189h13.528"/>
        <path fill="#FEFEFE" d="M518.867 283.634h13.528"/>
        <path stroke="#94C01F" stroke-width=".378" d="M518.867 283.634h13.528"/>
        <path fill="#FEFEFE" d="M518.867 287.68h13.528"/>
        <path stroke="#94C01F" stroke-width=".378" d="M518.867 287.68h13.528"/>
        <path fill="#FEFEFE" d="M518.039 290.738v13.53"/>
        <path stroke="#94C01F" stroke-width=".378" d="M518.039 290.738v13.53"/>
        <path fill="#FEFEFE" d="M514.742 290.738v13.53"/>
        <path stroke="#94C01F" stroke-width=".378" d="M514.742 290.738v13.53"/>
        <path fill="#FEFEFE" d="M510.697 290.738v13.53"/>
        <path stroke="#94C01F" stroke-width=".378" d="M510.697 290.738v13.53"/>
        <path fill="#FEFEFE" d="M508.245 290.738v13.53"/>
        <path stroke="#94C01F" stroke-width=".378" d="M508.245 290.738v13.53"/>
        <path fill="#FEFEFE" d="M504.603 290.738v13.53"/>
        <path stroke="#94C01F" stroke-width=".378" d="M504.603 290.738v13.53"/>
        <path fill="#FEFEFE" d="M500.556 290.738v13.53"/>
        <path stroke="#94C01F" stroke-width=".378" d="M500.556 290.738v13.53"/>
        <path fill="#FEFEFE" d="M498.12 290.738v13.53"/>
        <path stroke="#94C01F" stroke-width=".378" d="M498.12 290.738v13.53"/>
        <path fill="#403C3A" d="M513.8 257h-13.604a.195.195 0 0 1-.196-.193v-4.614c0-.106.087-.193.196-.193H513.8c.112 0 .201.087.201.193v4.614c0 .106-.09.193-.2.193"/>
        <mask id="d" fill="#fff">
            <use xlink:href="#c"/>
        </mask>
        <path fill="#403C3A" d="M290 270h13v-8h-13zM160 283.846h5.303v1.97c0 .101.082.184.183.184h137.33c.101 0 .184-.083.184-.183v-15.634c0-.1-.083-.183-.183-.183H165.486c-.1 0-.183.083-.183.183v1.971H160v11.692zM468 204h8v-10h-8z" mask="url(#d)"/>
        <path fill="#FEFEFE" d="M129.097 370l1.346-8.448H127l.254-1.552H136l-.256 1.552H132.3L130.955 370z" mask="url(#d)"/>
        <path fill="#FEFEFE" d="M135.432 368.155c.38.116.845.187 1.306.173.895 0 1.755-.302 1.97-1.105l.449-2.668c.147-.875-.68-1.205-1.624-1.19-.448 0-.942.085-1.356.242l-.745 4.548zm-.91-5.566c.991-.36 2.235-.589 3.36-.589 1.836.016 3.392.661 3.077 2.583l-.43 2.64c-.28 1.678-2.133 2.51-3.824 2.496-.528 0-1.04-.086-1.488-.259l-.399 2.54H133l1.522-9.411zM142.765 365.332a4.57 4.57 0 0 0 1.42.252c.8 0 1.27-.445 1.297-1.041.029-.521-.358-.995-1.145-.995-.69 0-1.378.46-1.49 1.249l-.082.535zm3.448 3.167c-.73.98-1.752 1.501-2.677 1.501-1.377 0-2.744-.938-2.51-2.707l.332-2.555c.235-1.829 1.752-2.738 3.173-2.738 1.42 0 2.676.91 2.44 2.693-.192 1.47-1.392 2.154-2.882 2.154a3.83 3.83 0 0 1-1.49-.297l-.084.743c-.107.775.47 1.19 1.148 1.206.538.014 1.198-.24 1.583-.775l.967.775zM150.34 368.602l-.516 3.398H148l1.21-8h1.827l-.45 3.043h3.14l.463-3.043H156l-1.21 8h-1.811l.516-3.398zM160.46 363.652c-.763-.49-2.488-.328-2.659 1.025l-.342 2.69c-.091.776.422 1.087 1.041 1.101.499.015 1.066-.179 1.408-.476l.553-4.34zm-.619 5.53c-.513.58-1.132.818-1.723.818-1.211 0-2.302-.997-2.092-2.632l.342-2.675c.263-2.022 1.71-2.693 3.183-2.693.83 0 1.765.285 2.449.685l-.882 7.167h-1.17l-.107-.67zM167.443 368.695l-.355.355-.386 2.95h-1.462l.37-2.95-.274-.355-2.573 3.305H161l3.446-4.323-2.503-3.677h1.805l2.095 3.212.395-3.212h1.466l-.397 3.212 2.886-3.212H172l-3.422 3.677 2.368 4.323h-1.765zM174.765 365.332a4.57 4.57 0 0 0 1.42.252c.8 0 1.27-.445 1.297-1.041.029-.521-.358-.995-1.145-.995-.69 0-1.378.46-1.49 1.249l-.082.535zm3.448 3.167c-.73.98-1.752 1.501-2.677 1.501-1.377 0-2.744-.938-2.51-2.707l.332-2.555c.235-1.829 1.752-2.738 3.173-2.738 1.42 0 2.676.91 2.44 2.693-.192 1.47-1.392 2.154-2.882 2.154a3.83 3.83 0 0 1-1.49-.297l-.084.743c-.107.775.47 1.19 1.148 1.206.538.014 1.198-.24 1.583-.775l.967.775zM182.432 368.155c.38.116.845.187 1.306.173.895 0 1.755-.302 1.97-1.105l.449-2.668c.147-.875-.68-1.205-1.624-1.19-.448 0-.942.085-1.356.242l-.745 4.548zm-.91-5.566c.991-.36 2.235-.589 3.36-.589 1.836.016 3.392.661 3.077 2.583l-.43 2.64c-.28 1.678-2.133 2.51-3.824 2.496-.528 0-1.04-.086-1.488-.259l-.399 2.54H180l1.522-9.411zM189.34 368.602l-.516 3.398H187l1.21-8h1.827l-.45 3.043h3.14l.463-3.043H195l-1.21 8h-1.811l.516-3.398z" mask="url(#d)"/>
        <path fill="#FEFEFE" d="M204 364l-1.119 7.849h-1.687l1.118-7.849H204zm-8.13 4.198l-.17 1.165c-.107.773.63 1.153 1.335 1.153.769 0 1.581-.44 1.703-1.29.153-.984-.368-1.407-1.243-1.407-.523 0-1.18.197-1.625.379zm.183-1.244c.506-.226 1.306-.44 1.933-.44 1.843 0 2.624 1.093 2.378 2.774-.245 1.744-1.826 2.697-3.543 2.712-1.626-.015-3.037-.877-2.794-2.666l.752-5.334h1.688l-.414 2.954zM210.503 360c-.261 1.311-1.285 1.961-2.2 1.961-.891 0-1.718-.691-1.612-1.961h1.244c.013.414.276.635.577.635.301 0 .63-.206.76-.635h1.231zm-.406 9.461c-1.139.428-1.992.539-2.673.539-1.375 0-2.62-.775-2.398-2.487l.643-4.805h1.44l-.64 4.818c-.093.705.471 1.093 1.086 1.106.459 0 .866-.055 1.246-.193l.76-5.731H211l-.903 6.753zM131.983 381.097c-.104.745-.582 1.353-1.133 1.621.725.342 1.075 1.115.914 2.022-.276 1.605-1.698 2.26-3.15 2.26-1.16 0-2.076-.389-2.614-1.442l1.206-.7c.276.507.768.79 1.466.79.812 0 1.451-.224 1.583-1.073.115-.86-.364-1.19-1.234-1.19h-1.003l.145-1.098h.987c.67 0 1.192-.342 1.28-1.041.1-.64-.35-.891-1.047-.891-.682 0-1.133.19-1.568.638l-.885-.683c.725-.893 1.771-1.31 2.832-1.31 1.436 0 2.38.82 2.22 2.097M136.46 380.652c-.763-.49-2.488-.328-2.659 1.025l-.342 2.69c-.091.776.422 1.087 1.041 1.101.499.015 1.066-.179 1.408-.476l.553-4.34zm-.619 5.53c-.513.58-1.132.818-1.723.818-1.211 0-2.302-.997-2.092-2.632l.342-2.675c.263-2.022 1.71-2.693 3.183-2.693.83 0 1.765.285 2.449.685l-.882 7.167h-1.17l-.107-.67zM144.179 381.559l-.551 2.671c-.52 2.515-.995 3.858-3.628 3.765l.21-1.575c1.456.046 1.501-.477 2.022-3.041l.698-3.379H148l-1.068 7.995h-1.652l.877-6.436h-1.978z" mask="url(#d)"/>
        <path stroke="#FEFEFE" stroke-linecap="round" stroke-linejoin="round" stroke-width=".808" d="M108 360.598v5.804c0 .879.905 1.598 1.999 1.598 1.099 0 2.001-.72 2.001-1.598v-5.804c0-.879-.902-1.598-2.001-1.598-1.094 0-1.999.72-1.999 1.598z" mask="url(#d)"/>
        <path stroke="#FEFEFE" stroke-linecap="round" stroke-linejoin="round" stroke-width=".808" d="M114 361.583v2.834c0 .87-.9 1.583-1.995 1.583-1.102 0-2.005-.712-2.005-1.583v-2.834c0-.87.903-1.583 2.005-1.583 1.095 0 1.995.712 1.995 1.583zM89 360.598v5.804c0 .879-.9 1.598-1.995 1.598-1.102 0-2.005-.72-2.005-1.598v-5.804c0-.879.903-1.598 2.005-1.598 1.095 0 1.995.72 1.995 1.598z" mask="url(#d)"/>
        <path stroke="#FEFEFE" stroke-linecap="round" stroke-linejoin="round" stroke-width=".808" d="M83 361.583v2.834c0 .87.903 1.583 1.997 1.583 1.1 0 2.003-.712 2.003-1.583v-2.834c0-.87-.903-1.583-2.003-1.583-1.094 0-1.997.712-1.997 1.583zM108 362.665c-6.334-.844-12.664-.928-19 0M97.498 366a2.5 2.5 0 1 1 .004 5 2.5 2.5 0 0 1-.004-5zM103.183 372c-.754 1.23-.594 2.12-1.03 3.11-.9 2.033-1.82 4.055-.471 7.261 1.955 3.41 3.23 6.926 3.318 10.629M92.261 364c-1.467 6.2-2.142 4.707.739 10" mask="url(#d)"/>
        <path stroke="#FEFEFE" stroke-linecap="round" stroke-linejoin="round" stroke-width=".808" d="M92.827 372c.762 1.23.598 2.12 1.04 3.11.431.968.863 1.934 1.056 3.026.715 4.087-3.781 8.977-3.923 14.864M95 381h6M94 384.976c2.634-1.318 5.638-1.293 9 .024M93 372.06c2.95 1.294 6.229 1.23 10-.06M103.736 364c1.47 6.2 2.145 4.707-.736 10" mask="url(#d)"/>
        <path stroke="#403C3A" stroke-linecap="round" stroke-linejoin="round" stroke-width=".818" d="M70 393V248" mask="url(#d)"/>
        <path stroke="#94C01F" stroke-linecap="round" stroke-linejoin="round" stroke-width=".818" d="M70 286v-61" mask="url(#d)"/>
        <path fill="#94C01F" d="M77 227c0-2.761-2.241-5-5-5s-5 2.239-5 5 2.241 5 5 5 5-2.239 5-5" mask="url(#d)"/>
        <path stroke="#94C01F" stroke-linecap="round" stroke-linejoin="round" stroke-width=".818" d="M257 286V173" mask="url(#d)"/>
        <path fill="#94C01F" d="M262 174a5 5 0 1 0-10.001.001A5 5 0 0 0 262 174" mask="url(#d)"/>
        <path stroke="#403C3A" stroke-linecap="round" stroke-linejoin="round" stroke-width=".818" d="M393 391v-91" mask="url(#d)"/>
        <path stroke="#94C01F" stroke-linecap="round" stroke-linejoin="round" stroke-width=".818" d="M393 300v-48" mask="url(#d)"/>
        <path fill="#94C01F" d="M397 253c0-2.761-2.241-5-5-5s-5 2.239-5 5 2.241 5 5 5 5-2.239 5-5" mask="url(#d)"/>
        <path stroke="#403C3A" stroke-linecap="round" stroke-linejoin="round" stroke-width=".818" d="M393 57v91" mask="url(#d)"/>
        <path stroke="#94C01F" stroke-linecap="round" stroke-linejoin="round" stroke-width=".818" d="M393 149v21" mask="url(#d)"/>
        <path fill="#94C01F" d="M387 168.999a5.002 5.002 0 0 0 5 5.001 5 5 0 1 0-5-5.001" mask="url(#d)"/>
        <path stroke="#94C01F" stroke-linecap="round" stroke-linejoin="round" stroke-width=".818" d="M472 263v36" mask="url(#d)"/>
        <path fill="#94C01F" d="M467 263.001a5.001 5.001 0 1 1 5 4.999c-2.757 0-5-2.24-5-4.999" mask="url(#d)"/>
        <path stroke="#403C3A" stroke-linecap="round" stroke-linejoin="round" stroke-width=".818" d="M567 390v-71.466c0-5.332-4.37-9.656-9.765-9.656h-75.47c-5.393 0-9.765-4.321-9.765-9.654V299" mask="url(#d)"/>
        <path fill="#FEFEFE" d="M625.491 373.844l3.971 5.156h-2.194l-3.165-4.081-.85.719-.523 3.362H621l1.491-10h1.732l-.686 4.591L628.79 369H631zM634.46 372.65c-.763-.49-2.488-.328-2.659 1.025l-.342 2.692c-.091.775.422 1.087 1.041 1.101.499.014 1.066-.18 1.408-.476l.553-4.342zm-.619 5.532c-.513.58-1.132.818-1.723.818-1.211 0-2.302-.997-2.092-2.633l.342-2.675c.263-2.023 1.71-2.692 3.183-2.692.83 0 1.765.283 2.449.684l-.882 7.167h-1.17l-.107-.669zM638.37 373.647c.233-1.784 1.755-2.647 3.138-2.647 1.11 0 2.299.55 2.492 2.022l-1.44.566c-.093-.684-.655-.983-1.245-.997-.656 0-1.355.372-1.438 1.042l-.357 2.675c-.083.686.494 1.115 1.178 1.101a1.687 1.687 0 0 0 1.494-1.056l1.3.625c-.573 1.473-1.93 2.022-3.041 2.022-1.383 0-2.657-.922-2.423-2.706l.343-2.647zM645.37 373.647c.233-1.784 1.755-2.647 3.138-2.647 1.11 0 2.299.55 2.492 2.022l-1.44.566c-.093-.684-.655-.983-1.245-.997-.656 0-1.355.372-1.438 1.042l-.357 2.675c-.083.686.494 1.115 1.178 1.101a1.687 1.687 0 0 0 1.494-1.056l1.3.625c-.573 1.473-1.93 2.022-3.041 2.022-1.383 0-2.657-.922-2.423-2.706l.343-2.647zM656.46 372.65c-.763-.49-2.488-.328-2.659 1.025l-.342 2.692c-.091.775.422 1.087 1.041 1.101.499.014 1.066-.18 1.408-.476l.553-4.342zm-.619 5.532c-.513.58-1.132.818-1.723.818-1.211 0-2.302-.997-2.092-2.633l.342-2.675c.263-2.023 1.71-2.692 3.183-2.692.83 0 1.765.283 2.449.684l-.882 7.167h-1.17l-.107-.669z" mask="url(#d)"/>
        <path stroke="#FEFEFE" stroke-linecap="round" stroke-linejoin="round" stroke-width=".808" d="M594.084 359h5.83c.598 0 1.086.47 1.086 1.044v1.912c0 .574-.488 1.044-1.086 1.044h-5.83c-.598 0-1.084-.47-1.084-1.044v-1.912c0-.574.486-1.044 1.084-1.044zM597 365v-3M594 371h2.979M600 371h2.979M594 369h2.979M600 369h2.979M594 375h2.979M600 375h2.979M594 377h8M579.499 381h26c.825 0 1.501.805 1.501 1.79v4.42c0 .983-.676 1.79-1.5 1.79h-26.001c-.825 0-1.499-.807-1.499-1.79v-4.42c0-.985.674-1.79 1.499-1.79z" mask="url(#d)"/>
        <path stroke="#FEFEFE" stroke-linecap="round" stroke-linejoin="round" stroke-width=".808" d="M591.746 365h11.191L605 381h-24l2.063-16h2.41M581 384h11" mask="url(#d)"/>
        <path stroke="#FEFEFE" stroke-linecap="round" stroke-linejoin="round" stroke-width=".808" d="M589.384 360.765c.021-.415-.255-.765-.6-.765h-4.173c-.325 0-.594.306-.604.692-.055 1.935.231 3.864.54 5.81.29 1.851.2 3.715-.252 5.577-.11.46.178.921.577.921h4.12c.272 0 .505-.213.579-.52.49-1.993.544-3.992.246-5.978-.288-1.916-.516-3.827-.433-5.737z" mask="url(#d)"/>
        <path fill="#FEFEFE" d="M294.66 377.473c1.303 0 2.145-.367 2.336-1.58.174-1.061-.35-1.625-1.908-1.625h-2.495l-.511 3.205h2.578zm.635-4.548c2.687 0 3.864.89 3.529 3.024-.348 2.104-2.115 3.051-4.419 3.051H290l1.59-10H299l-.237 1.498h-5.567l-.396 2.427h2.495z" mask="url(#d)"/>
        <path fill="#FEFEFE" d="M301.46 372.652c-.763-.49-2.488-.328-2.659 1.025l-.342 2.69c-.091.776.422 1.087 1.041 1.101.499.015 1.066-.179 1.408-.476l.553-4.34zm-.619 5.53c-.513.58-1.132.818-1.723.818-1.211 0-2.302-.997-2.092-2.632l.342-2.675c.263-2.022 1.71-2.693 3.183-2.693.83 0 1.765.285 2.449.685l-.882 7.167h-1.17l-.107-.67zM305.37 373.647c.233-1.784 1.755-2.647 3.138-2.647 1.11 0 2.299.55 2.492 2.022l-1.44.566c-.093-.686-.655-.983-1.245-.997-.656 0-1.355.372-1.438 1.042l-.357 2.675c-.083.686.494 1.115 1.178 1.101a1.687 1.687 0 0 0 1.494-1.056l1.3.625c-.573 1.473-1.93 2.022-3.041 2.022-1.383 0-2.657-.922-2.423-2.706l.343-2.647zM313.37 373.647c.233-1.784 1.755-2.647 3.138-2.647 1.11 0 2.299.55 2.492 2.022l-1.44.566c-.093-.686-.655-.983-1.245-.997-.656 0-1.355.372-1.438 1.042l-.357 2.675c-.083.686.494 1.115 1.178 1.101a1.687 1.687 0 0 0 1.494-1.056l1.3.625c-.573 1.473-1.93 2.022-3.041 2.022-1.383 0-2.657-.922-2.423-2.706l.343-2.647zM321.765 374.332a4.57 4.57 0 0 0 1.42.252c.8 0 1.27-.445 1.297-1.041.029-.521-.358-.995-1.145-.995-.69 0-1.378.46-1.49 1.249l-.082.535zm3.448 3.167c-.73.98-1.752 1.501-2.677 1.501-1.377 0-2.744-.938-2.51-2.707l.332-2.555c.235-1.829 1.752-2.738 3.173-2.738 1.42 0 2.676.91 2.44 2.693-.192 1.47-1.392 2.154-2.882 2.154a3.83 3.83 0 0 1-1.49-.297l-.084.743c-.107.775.47 1.19 1.148 1.206.538.014 1.198-.24 1.583-.775l.967.775zM331.503 369c-.261 1.311-1.285 1.961-2.2 1.961-.891 0-1.718-.691-1.612-1.961h1.244c.013.414.276.635.577.635.301 0 .63-.206.76-.635h1.231zm-.406 9.461c-1.139.428-1.992.539-2.673.539-1.375 0-2.62-.775-2.398-2.487l.643-4.805h1.44l-.64 4.818c-.093.705.471 1.093 1.086 1.106.459 0 .866-.055 1.246-.193l.76-5.731H332l-.903 6.753zM336.34 375.602l-.516 3.398H334l1.21-8h1.827l-.45 3.043h3.14l.463-3.043H342l-1.21 8h-1.811l.516-3.398z" mask="url(#d)"/>
        <path stroke="#FEFEFE" stroke-linecap="round" stroke-linejoin="round" stroke-width=".808" d="M263.5 364a2.5 2.5 0 1 1 .001 5 2.5 2.5 0 0 1-.002-5zM258 370c-1.259 1.737-3.674 2.994-5 4M263 372a538.173 538.173 0 0 0-5 4M278 383c-2.367 4.168-6.827 3.828-9 0M261 383c2.369 4.168 6.827 3.828 9 0M261 383c-2.369 4.168-6.827 3.828-9 0M244 383c2.369 4.168 6.827 3.828 9 0M263 361l-5 2.876.714 6.124M272 377c-2.367 4.17-6.827 3.827-9 0M254 377c2.369 4.17 6.827 3.827 9 0M255 377c-2.367 4.17-6.827 3.827-9 0M263 372l3 3" mask="url(#d)"/>
        <path fill="#FEFEFE" d="M456.491 373.844l3.971 5.156h-2.194l-3.165-4.081-.85.719-.523 3.362H452l1.491-10h1.732l-.686 4.591L459.79 369H462zM465.46 372.65c-.763-.49-2.488-.328-2.659 1.025l-.342 2.692c-.091.775.422 1.087 1.041 1.101.499.014 1.066-.18 1.408-.476l.553-4.342zm-.619 5.532c-.513.58-1.132.818-1.723.818-1.211 0-2.302-.997-2.092-2.633l.342-2.675c.263-2.023 1.71-2.692 3.183-2.692.83 0 1.765.283 2.449.684l-.882 7.167h-1.17l-.107-.669zM470.432 377.154c.38.116.845.187 1.306.173.895 0 1.755-.302 1.97-1.105l.449-2.668c.147-.876-.68-1.205-1.624-1.192-.448 0-.942.087-1.356.244l-.745 4.548zm-.91-5.567a10.36 10.36 0 0 1 3.36-.587c1.836.014 3.392.66 3.077 2.581l-.43 2.64c-.28 1.68-2.133 2.512-3.824 2.498-.528 0-1.04-.086-1.488-.26l-.399 2.541H468l1.522-9.413zM477.711 375l-.288 2.356c-.09.788.522 1.118 1.124 1.118.6 0 1.267-.376 1.369-1.15l.379-3.247a2.91 2.91 0 0 0-1.174-.285c-.64.029-1.306.422-1.41 1.207m4.256-3.156l-.665 5.439c-.209 1.782-1.608 2.718-2.939 2.718-1.333 0-2.558-.862-2.337-2.644l.288-2.342c.209-1.768 1.58-2.613 2.846-2.599.47 0 .967.077 1.319.333l.13-1.042c.106-.876-.482-1.286-1.226-1.286-.51 0-1.045.137-1.477.455l-.64-1.027c.772-.652 1.503-.848 2.428-.848 1.32 0 2.522.862 2.273 2.843M488.108 378.35c-.865.407-1.836.65-2.689.65-1.47-.015-2.624-.773-2.388-2.726l.642-5.274h1.443l-.64 5.303c-.069.864.59 1.258 1.297 1.258.354 0 .734-.09 1.036-.273l.76-6.288H489l-.892 7.35zM491.88 373.661l-.33 2.602c-.097.729.536 1.146 1.167 1.146.592 0 1.32-.417 1.415-1.146l.33-2.602c.096-.728-.55-1.07-1.14-1.07-.631 0-1.345.342-1.443 1.07zm-1.51 0c.232-1.77 1.757-2.647 3.159-2.661 1.371.014 2.677.891 2.444 2.661l-.344 2.676c-.235 1.8-1.756 2.649-3.132 2.663-1.4-.014-2.703-.863-2.47-2.663l.342-2.676zM501.782 376H498l.218-2H502zM508.983 373.096c-.104.744-.582 1.353-1.133 1.621.725.342 1.075 1.115.914 2.023-.276 1.605-1.698 2.26-3.15 2.26-1.16 0-2.076-.387-2.614-1.443l1.206-.7c.276.507.768.79 1.466.79.812 0 1.451-.224 1.583-1.072.115-.86-.364-1.19-1.234-1.19h-1.003l.145-1.1h.987c.67 0 1.192-.341 1.28-1.04.1-.64-.35-.892-1.047-.892-.682 0-1.133.191-1.568.639l-.885-.684c.725-.893 1.771-1.308 2.832-1.308 1.436 0 2.38.818 2.22 2.096M514.46 372.65c-.763-.49-2.488-.328-2.659 1.025l-.342 2.692c-.091.775.422 1.087 1.041 1.101.499.014 1.066-.18 1.408-.476l.553-4.342zm-.619 5.532c-.513.58-1.132.818-1.723.818-1.211 0-2.302-.997-2.092-2.633l.342-2.675c.263-2.023 1.71-2.692 3.183-2.692.83 0 1.765.283 2.449.684l-.882 7.167h-1.17l-.107-.669zM521.179 372.559l-.551 2.671c-.52 2.515-.995 3.858-3.628 3.765l.21-1.575c1.456.046 1.501-.477 2.022-3.041l.698-3.379H525l-1.068 7.995h-1.652l.877-6.436h-1.978z" mask="url(#d)"/>
        <path stroke="#FEFEFE" stroke-linecap="round" stroke-linejoin="round" stroke-width=".808" d="M418 375l-.29 6-7.71-.177M419 365l-5 1.615 1.651 4.385M424.166 359.385a2.499 2.499 0 1 1 2.666 4.23 2.502 2.502 0 0 1-3.449-.783 2.505 2.505 0 0 1 .783-3.447z" mask="url(#d)"/>
        <path stroke="#FEFEFE" stroke-linecap="round" stroke-linejoin="round" stroke-width=".808" d="M432 369.963l-5.845 1.343c-1.273-1.197-.652-6.862-2.856-6.262-1.58.347-2.826 1.677-3.39 3.434l-1.71 5.432c-.78 2.318.891 3.473 2.21 4.214l3.32 1.876" mask="url(#d)"/>
        <path stroke="#FEFEFE" stroke-linecap="round" stroke-linejoin="round" stroke-width=".808" d="M427 385l-.807-6.99-4.193-3.897 1.272-3.113" mask="url(#d)"/>
        <path stroke="#FEFEFE" stroke-linecap="round" stroke-linejoin="round" stroke-width=".808" d="M409.828 384h25.342c1.006 0 1.83.9 1.83 2.001 0 1.099-.824 1.999-1.83 1.999h-25.342c-1.005 0-1.828-.9-1.828-1.999 0-1.1.823-2.001 1.828-2.001z" mask="url(#d)"/>
        <path stroke="#FEFEFE" stroke-linecap="round" stroke-linejoin="round" stroke-width=".808" d="M436.287 385L442 367l-9 5.186 1.692 2.763 2.84-1.596" mask="url(#d)"/>
        <path fill="#FEFEFE" d="M456.724 72.16c-.338 1.751-.718 3.176-1.382 4.121h3.837l.972-7.545h-2.792l-.635 3.424zM459.8 80l.24-2.029h-6.164L453.623 80H452l.465-3.719h.21c1.511-.122 1.892-1.626 2.598-5.393l.733-3.888H462l-1.185 9.281h1.087L461.435 80H459.8zM464.765 72.33a4.56 4.56 0 0 0 1.42.255c.8 0 1.27-.448 1.297-1.042.029-.52-.358-.997-1.145-.997-.69 0-1.378.462-1.49 1.25l-.082.535zm3.448 3.168c-.73.983-1.752 1.502-2.677 1.502-1.377 0-2.744-.936-2.51-2.706l.332-2.557c.235-1.83 1.752-2.737 3.173-2.737 1.42 0 2.676.907 2.44 2.692-.192 1.473-1.392 2.156-2.882 2.156a3.829 3.829 0 0 1-1.49-.297l-.084.743c-.107.773.47 1.19 1.148 1.204.538.015 1.198-.238 1.583-.773l.967.773zM471.916 69.833c.702-.485 1.716-.833 2.615-.833.858.015 1.647.363 1.97 1.105A2.763 2.763 0 0 1 478.72 69c1.309 0 2.475 1.014 2.251 2.743L480.295 77h-1.53l.674-5.197c.127-.713-.35-1.182-.956-1.182-.604 0-1.351.514-1.434 1.122L476.372 77h-1.518l.69-5.334c.085-.697-.463-1.03-1.111-1.045-.381-.014-.8.106-1.14.32L472.52 77H471l.916-7.167zM481.37 71.647c.233-1.784 1.755-2.647 3.138-2.647 1.11 0 2.299.55 2.492 2.022l-1.44.566c-.093-.684-.655-.983-1.245-.997-.656 0-1.355.372-1.438 1.042l-.357 2.675c-.083.686.494 1.115 1.178 1.101a1.687 1.687 0 0 0 1.494-1.056l1.3.625c-.573 1.473-1.93 2.022-3.041 2.022-1.383 0-2.657-.922-2.423-2.706l.343-2.647zM490.744 73.818l-.655.572-.373 2.61H488l1.137-8h1.716l-.467 3.305 3.54-3.305H496l-3.93 3.721L494.813 77h-2.043z" mask="url(#d)"/>
        <path fill="#FEFEFE" d="M500.108 76.35c-.865.407-1.836.65-2.689.65-1.47-.015-2.624-.773-2.388-2.726l.642-5.274h1.443l-.64 5.303c-.069.864.59 1.258 1.297 1.258.354 0 .734-.09 1.036-.273l.76-6.288H501l-.892 7.35zM508.503 67c-.261 1.311-1.285 1.961-2.2 1.961-.891 0-1.718-.691-1.612-1.961h1.244c.013.414.276.635.577.635.301 0 .63-.206.76-.635h1.231zm-.406 9.461c-1.139.428-1.992.539-2.673.539-1.375 0-2.62-.775-2.398-2.487l.643-4.805h1.44l-.64 4.818c-.093.705.471 1.093 1.086 1.106.459 0 .866-.055 1.246-.193l.76-5.731H509l-.903 6.753zM515.744 73.818l-.655.572-.373 2.61H513l1.137-8h1.716l-.467 3.305 3.54-3.305H521l-3.93 3.721L519.813 77h-2.043zM524.179 70.559l-.551 2.671c-.52 2.515-.995 3.858-3.628 3.765l.21-1.575c1.456.046 1.501-.477 2.022-3.041L522.93 69H528l-1.068 7.995h-1.652l.877-6.436h-1.978zM534.796 76.368c-.306 1.827-2.106 2.645-3.807 2.632-1.27 0-2.49-.472-2.989-1.33l1.204-.872c.37.525 1.207.83 2.01.83.946 0 1.784-.485 1.96-1.593a5.427 5.427 0 0 1-1.67.278c-1.689-.028-3.199-.928-2.926-2.508l.771-4.805h1.767l-.786 4.778c-.066.735.74 1.135 1.589 1.15.516 0 1.061-.111 1.43-.318l.9-5.61H536l-1.204 7.368zM537.842 72.573l-.357 2.81c-.107.75.501 1.118 1.125 1.118.609 0 1.31-.368 1.402-1.119l.267-2.16c.105-.824-.412-1.12-1.06-1.12-.491 0-.94.147-1.377.471zM542 68.25c-.609.427-1.43.618-2.212.72-.742.09-1.524.164-1.642 1.178L538 71.22a2.774 2.774 0 0 1 1.642-.545c1.404 0 2.315.84 2.09 2.56l-.277 2.176c-.212 1.735-1.681 2.588-3.033 2.588-1.35 0-2.622-.853-2.397-2.588l.676-5.382c.224-1.81 1.641-2.296 2.86-2.426.901-.103 1.563-.28 2.12-.604l.318 1.25z" mask="url(#d)"/>
        <path stroke="#FEFEFE" stroke-linecap="round" stroke-linejoin="round" stroke-width=".808" d="M407 71c-1.784.034-2.998 1.563-3 3 0 1.314.997 2.929 3 3M422 71c1.788.034 3 1.563 3 3 0 1.314-.993 2.929-3 3" mask="url(#d)"/>
        <path stroke="#FEFEFE" stroke-linecap="round" stroke-linejoin="round" stroke-width=".808" d="M421 72.173c-3.007-6.947-12.235-6.847-14.973 0M406 77.774c1.02 2.672 3.51 5.085 7.497 5.226M422 78c-1.089 2.556-3.745 4.867-8 5M413 74v2.406M416 74v2.406M416 78c-1.061 2.54-3.819 2.79-5 0M414 67v3M411 67v3M416 67v4M436 71c1.786.034 3 1.563 3 3 0 1.314-.993 2.929-3 3" mask="url(#d)"/>
        <path stroke="#FEFEFE" stroke-linecap="round" stroke-linejoin="round" stroke-width=".808" d="M437 72.173c-3.006-6.947-12.236-6.847-14.973 0M422 77.774c1.02 2.672 3.511 5.085 7.496 5.226M437 78c-1.089 2.556-3.747 4.867-8 5M427 74v2.406M430 74v2.406M432 78c-1.062 2.54-3.818 2.79-5 0M427 67c1.206 3.02 5.52 4.807 10 3.64" mask="url(#d)"/>
        <path stroke="#FEFEFE" stroke-linecap="round" stroke-linejoin="round" stroke-width=".808" d="M422.835 68L420 64.913l4.612-.077L427.03 62 429 65.92M424 65l2.475 4M265.498 62c1.38 0 2.502 1.12 2.502 2.5s-1.121 2.5-2.502 2.5a2.5 2.5 0 0 1 0-5zM272 78l-3 10M261 78l3 10M253 81h6.84m4.113 0h6.017m4.23 0h3.8M262 70l-5 9M269 70l6 9M269 70c-.995 3.75-2.874 7.848-6 9M262 70l2.223 5M253 69c2.086-3.516-.934-4.544.32-9M257 69c2.084-3.516-.936-4.544.32-9M250 69c2.086-3.516-.934-4.544.32-9" mask="url(#d)"/>
        <path fill="#FEFEFE" d="M301.888 72.733l-.763.708-.516 3.559h-1.655l.504-3.56-.563-.707-3.78 4.267H293l4.776-5.198L294.438 67h2.084l3.208 4.618.663-4.618h1.653l-.646 4.618L305.916 67H308l-4.7 4.802L306.561 77h-2.114z" mask="url(#d)"/>
        <path fill="#FEFEFE" d="M307.765 72.33a4.56 4.56 0 0 0 1.42.255c.8 0 1.27-.448 1.297-1.042.029-.52-.358-.997-1.145-.997-.69 0-1.378.462-1.49 1.25l-.082.535zm3.448 3.168c-.73.983-1.752 1.502-2.677 1.502-1.377 0-2.744-.936-2.51-2.706l.332-2.557c.235-1.83 1.752-2.737 3.173-2.737 1.42 0 2.676.907 2.44 2.692-.192 1.473-1.392 2.156-2.882 2.156a3.829 3.829 0 0 1-1.49-.297l-.084.743c-.107.773.47 1.19 1.148 1.204.538.015 1.198-.238 1.583-.773l.967.773zM316.34 73.602L315.824 77H314l1.21-8h1.827l-.45 3.043h3.14L320.19 69H322l-1.21 8h-1.811l.516-3.398z" mask="url(#d)"/>
        <path fill="#FEFEFE" d="M321.37 71.647c.233-1.784 1.755-2.647 3.138-2.647 1.11 0 2.299.55 2.492 2.022l-1.44.566c-.093-.684-.655-.983-1.245-.997-.656 0-1.355.372-1.438 1.042l-.357 2.675c-.083.686.494 1.115 1.178 1.101a1.687 1.687 0 0 0 1.494-1.056l1.3.625c-.573 1.473-1.93 2.022-3.041 2.022-1.383 0-2.657-.922-2.423-2.706l.343-2.647zM330.744 73.818l-.655.572-.373 2.61H328l1.137-8h1.716l-.467 3.305 3.54-3.305H336l-3.93 3.721L334.813 77h-2.043zM341.108 76.35c-.865.407-1.836.65-2.689.65-1.47-.015-2.624-.773-2.388-2.726l.642-5.274h1.443l-.64 5.303c-.069.864.59 1.258 1.297 1.258.354 0 .734-.09 1.036-.273l.76-6.288H342l-.892 7.35zM348.503 67c-.261 1.311-1.285 1.961-2.2 1.961-.891 0-1.718-.691-1.612-1.961h1.244c.013.414.276.635.577.635.301 0 .63-.206.76-.635h1.231zm-.406 9.461c-1.139.428-1.992.539-2.673.539-1.375 0-2.62-.775-2.398-2.487l.643-4.805h1.44l-.64 4.818c-.093.705.471 1.093 1.086 1.106.459 0 .866-.055 1.246-.193l.76-5.731H349l-.903 6.753zM298.108 92.35c-.865.407-1.836.65-2.689.65-1.47-.015-2.624-.773-2.388-2.726l.642-5.274h1.443l-.64 5.303c-.069.864.59 1.258 1.297 1.258.354 0 .734-.09 1.036-.273l.76-6.288H299l-.892 7.35zM311.053 87.688l-.658 1.111-1.754 3.104h-1.047l-.916-3.104-.373-1.111-.178 1.745-.482 3.567H304l1.092-8h1.888l1.422 4.803 2.71-4.803H313l-1.094 8h-1.648l.496-3.584zM319.796 92.368c-.306 1.827-2.106 2.645-3.807 2.632-1.27 0-2.49-.472-2.989-1.33l1.204-.872c.37.525 1.207.83 2.01.83.946 0 1.784-.485 1.96-1.593a5.416 5.416 0 0 1-1.67.278c-1.689-.028-3.199-.928-2.926-2.508l.771-4.805h1.767l-.786 4.778c-.066.735.74 1.135 1.589 1.15.516 0 1.061-.111 1.43-.318l.9-5.61H321l-1.204 7.368z" mask="url(#d)"/>
        <path fill="#FEFEFE" d="M326.444 89.695l-.355.355-.386 2.95h-1.462l.37-2.95-.274-.355L321.765 93H320l3.448-4.323L320.945 85h1.805l2.094 3.212.395-3.212h1.465l-.396 3.212L329.194 85H331l-3.421 3.677L329.946 93h-1.765zM331.37 87.647c.233-1.784 1.755-2.647 3.138-2.647 1.11 0 2.299.55 2.492 2.022l-1.44.566c-.093-.684-.655-.983-1.245-.997-.656 0-1.355.372-1.438 1.042l-.357 2.675c-.083.686.494 1.115 1.178 1.101a1.687 1.687 0 0 0 1.494-1.056l1.3.625c-.573 1.473-1.93 2.022-3.041 2.022-1.383 0-2.657-.922-2.423-2.706l.343-2.647zM341.744 89.818l-.655.572-.373 2.61H339l1.137-8h1.716l-.467 3.305 3.54-3.305H347l-3.93 3.721L345.813 93h-2.043z" mask="url(#d)"/>
        <path fill="#FEFEFE" d="M345.881 87.661l-.33 2.602c-.098.729.535 1.146 1.166 1.146.592 0 1.32-.417 1.415-1.146l.33-2.602c.096-.728-.55-1.07-1.14-1.07-.631 0-1.345.342-1.44 1.07zm-1.512 0c.233-1.77 1.758-2.647 3.16-2.661 1.371.014 2.677.891 2.444 2.661l-.344 2.676c-.233 1.8-1.756 2.649-3.132 2.663-1.4-.014-2.703-.863-2.47-2.663l.342-2.676zM357.503 83c-.261 1.311-1.285 1.961-2.2 1.961-.891 0-1.718-.691-1.612-1.961h1.244c.013.414.276.635.577.635.301 0 .63-.206.76-.635h1.231zm-.406 9.461c-1.139.428-1.992.539-2.673.539-1.375 0-2.62-.775-2.398-2.487l.643-4.805h1.44l-.64 4.818c-.093.705.471 1.093 1.086 1.106.459 0 .866-.055 1.246-.193l.76-5.731H358l-.903 6.753zM299.96 110h-1.86l-1.247-2.673-1.977 2.673H293l3.107-4-2.05-4h1.874l1.274 2.688 1.949-2.688H301l-3.003 4z" mask="url(#d)"/>
        <path fill="#FEFEFE" d="M304.46 103.652c-.763-.49-2.488-.328-2.659 1.025l-.342 2.69c-.091.776.422 1.087 1.041 1.101.499.015 1.066-.179 1.408-.476l.553-4.34zm-.619 5.53c-.513.58-1.132.818-1.723.818-1.211 0-2.302-.997-2.092-2.632l.342-2.675c.263-2.022 1.71-2.693 3.183-2.693.83 0 1.765.285 2.449.685l-.882 7.167h-1.17l-.107-.67zM314.053 104.688l-.658 1.111-1.754 3.104h-1.047l-.916-3.104-.373-1.111-.178 1.745-.482 3.567H307l1.092-8h1.888l1.422 4.803 2.71-4.803H316l-1.094 8h-1.648l.496-3.584zM322.46 103.652c-.763-.49-2.488-.328-2.659 1.025l-.342 2.69c-.091.776.422 1.087 1.041 1.101.499.015 1.066-.179 1.408-.476l.553-4.34zm-.619 5.53c-.513.58-1.132.818-1.723.818-1.211 0-2.302-.997-2.092-2.632l.342-2.675c.263-2.022 1.71-2.693 3.183-2.693.83 0 1.765.285 2.449.685l-.882 7.167h-1.17l-.107-.67zM332.053 104.688l-.658 1.111-1.754 3.104h-1.047l-.916-3.104-.373-1.111-.178 1.745-.482 3.567H325l1.092-8h1.888l1.422 4.803 2.71-4.803H334l-1.092 8h-1.65l.496-3.584zM126.888 74.733l-.763.708-.516 3.559h-1.655l.504-3.56-.563-.707-3.78 4.267H118l4.776-5.198L119.438 69h2.084l3.208 4.618.663-4.618h1.653l-.646 4.618L130.916 69H133l-4.7 4.802L131.561 79h-2.114zM134.765 74.33a4.56 4.56 0 0 0 1.42.255c.8 0 1.27-.448 1.297-1.042.029-.52-.358-.997-1.145-.997-.69 0-1.378.462-1.49 1.25l-.082.535zm3.448 3.168c-.73.983-1.752 1.502-2.677 1.502-1.377 0-2.744-.936-2.51-2.706l.332-2.557c.235-1.83 1.752-2.737 3.173-2.737 1.42 0 2.676.907 2.44 2.692-.192 1.473-1.392 2.156-2.882 2.156a3.829 3.829 0 0 1-1.49-.297l-.084.743c-.107.773.47 1.19 1.148 1.204.538.015 1.198-.238 1.583-.773l.967.773zM142.34 75.602L141.824 79H140l1.21-8h1.827l-.45 3.043h3.14L146.19 71H148l-1.21 8h-1.811l.516-3.398z" mask="url(#d)"/>
        <path fill="#FEFEFE" d="M147.37 73.647c.233-1.784 1.755-2.647 3.138-2.647 1.11 0 2.299.55 2.492 2.022l-1.44.566c-.093-.684-.655-.983-1.245-.997-.656 0-1.355.372-1.438 1.042l-.357 2.675c-.083.686.494 1.115 1.178 1.101a1.687 1.687 0 0 0 1.494-1.056l1.3.625c-.573 1.473-1.93 2.022-3.041 2.022-1.383 0-2.657-.922-2.423-2.706l.343-2.647zM157.744 75.818l-.655.572-.373 2.61H155l1.137-8h1.716l-.467 3.305 3.54-3.305H163l-3.93 3.721L161.813 79h-2.043z" mask="url(#d)"/>
        <path fill="#FEFEFE" d="M165.46 72.65c-.763-.49-2.488-.328-2.659 1.025l-.342 2.692c-.091.775.422 1.087 1.041 1.101.499.014 1.066-.18 1.408-.476l.553-4.342zm-.619 5.532c-.513.58-1.132.818-1.723.818-1.211 0-2.302-.997-2.092-2.633l.342-2.675c.263-2.023 1.71-2.692 3.183-2.692.83 0 1.765.283 2.449.684l-.882 7.167h-1.17l-.107-.669zM172.46 72.344c-.858 0-1.387.355-1.513 1.143-.126.864.326 1.236 1.293 1.236h1.53l.329-2.38h-1.64zm.326 3.537L169.997 79H168l2.994-3.212c-1.108-.169-1.904-.942-1.699-2.333.25-1.775 1.607-2.455 3.353-2.455H176l-1.137 8h-1.718l.452-3.119h-.81zM124.108 95.35c-.865.407-1.836.65-2.689.65-1.47-.015-2.624-.773-2.388-2.726l.642-5.274h1.443l-.64 5.303c-.069.864.59 1.258 1.297 1.258.354 0 .734-.09 1.036-.273l.76-6.288H125l-.892 7.35zM136.053 90.688l-.658 1.111-1.754 3.104h-1.047l-.916-3.104-.373-1.111-.178 1.745-.482 3.567H129l1.092-8h1.888l1.422 4.803 2.71-4.803H138l-1.094 8h-1.648l.496-3.584zM146.796 95.368c-.306 1.827-2.106 2.645-3.807 2.632-1.27 0-2.49-.472-2.989-1.33l1.204-.872c.37.525 1.207.83 2.01.83.946 0 1.784-.485 1.96-1.593a5.416 5.416 0 0 1-1.67.278c-1.689-.028-3.199-.928-2.926-2.508l.771-4.805h1.767l-.786 4.778c-.066.735.74 1.135 1.589 1.15.516 0 1.061-.111 1.43-.318l.9-5.61H148l-1.204 7.368z" mask="url(#d)"/>
        <path fill="#FEFEFE" d="M152.444 92.695l-.355.355-.386 2.95h-1.462l.37-2.95-.274-.355L147.765 96H146l3.448-4.323L146.945 88h1.805l2.094 3.212.395-3.212h1.465l-.396 3.212L155.194 88H157l-3.421 3.677L155.946 96h-1.765zM159.37 90.647c.233-1.784 1.755-2.647 3.138-2.647 1.11 0 2.299.55 2.492 2.022l-1.44.566c-.093-.684-.655-.983-1.245-.997-.656 0-1.355.372-1.438 1.042l-.357 2.675c-.083.686.494 1.115 1.178 1.101a1.687 1.687 0 0 0 1.494-1.056l1.3.625c-.573 1.473-1.93 2.022-3.041 2.022-1.383 0-2.657-.922-2.423-2.706l.343-2.647z" mask="url(#d)"/>
        <path fill="#FEFEFE" d="M166.744 92.818l-.655.572-.373 2.61H164l1.137-8h1.716l-.467 3.305 3.54-3.305H172l-3.93 3.721L170.813 96h-2.043z" mask="url(#d)"/>
        <path fill="#FEFEFE" d="M175.46 89.65c-.763-.49-2.488-.328-2.659 1.025l-.342 2.692c-.091.775.422 1.087 1.041 1.101.499.014 1.066-.18 1.408-.476l.553-4.342zm-.619 5.532c-.513.58-1.132.818-1.723.818-1.211 0-2.302-.997-2.092-2.633l.342-2.675c.263-2.023 1.71-2.692 3.183-2.692.83 0 1.765.283 2.449.684l-.882 7.167h-1.17l-.107-.669zM182.46 89.344c-.858 0-1.387.355-1.513 1.143-.126.864.326 1.236 1.293 1.236h1.53l.329-2.38h-1.64zm.326 3.537L179.997 96H178l2.994-3.212c-1.108-.169-1.904-.942-1.699-2.333.25-1.775 1.607-2.455 3.353-2.455H186l-1.137 8h-1.718l.452-3.119h-.81zM121.432 110.155c.38.116.845.187 1.306.173.895 0 1.755-.302 1.97-1.105l.449-2.668c.147-.875-.68-1.205-1.624-1.19-.448 0-.942.085-1.356.242l-.745 4.548zm-.91-5.566c.991-.36 2.235-.589 3.36-.589 1.836.016 3.392.661 3.077 2.583l-.43 2.64c-.28 1.678-2.133 2.51-3.824 2.496-.528 0-1.04-.086-1.488-.259l-.399 2.54H119l1.522-9.411zM131.46 105.652c-.763-.49-2.488-.328-2.659 1.025l-.342 2.69c-.091.776.422 1.087 1.041 1.101.499.015 1.066-.179 1.408-.476l.553-4.34zm-.619 5.53c-.513.58-1.132.818-1.723.818-1.211 0-2.302-.997-2.092-2.632l.342-2.675c.263-2.022 1.71-2.693 3.183-2.693.83 0 1.765.285 2.449.685l-.882 7.167h-1.17l-.107-.67zM140.983 106.097c-.104.745-.582 1.353-1.133 1.621.725.342 1.075 1.115.914 2.022-.276 1.605-1.698 2.26-3.15 2.26-1.16 0-2.076-.389-2.614-1.442l1.206-.7c.276.507.768.79 1.466.79.812 0 1.451-.224 1.583-1.073.115-.86-.364-1.19-1.234-1.19h-1.003l.145-1.098h.987c.67 0 1.192-.342 1.28-1.041.1-.64-.35-.891-1.047-.891-.682 0-1.133.19-1.568.638l-.885-.683c.725-.893 1.771-1.31 2.832-1.31 1.436 0 2.38.82 2.22 2.097M142.71 106l-.287 2.356c-.091.788.522 1.118 1.124 1.118.6 0 1.266-.376 1.368-1.15l.38-3.247a2.89 2.89 0 0 0-1.175-.285c-.64.029-1.306.422-1.41 1.207m4.258-3.156l-.667 5.439c-.209 1.782-1.607 2.718-2.938 2.718-1.333 0-2.558-.862-2.337-2.644l.288-2.342c.209-1.768 1.579-2.613 2.845-2.599.47 0 .967.077 1.319.333l.13-1.042c.106-.876-.482-1.284-1.225-1.284-.511 0-1.045.135-1.478.453l-.64-1.027c.773-.652 1.503-.848 2.429-.848 1.32 0 2.52.862 2.274 2.843M149.765 107.332a4.57 4.57 0 0 0 1.42.252c.8 0 1.27-.445 1.297-1.041.029-.521-.358-.995-1.145-.995-.69 0-1.378.46-1.49 1.249l-.082.535zm3.448 3.167c-.73.98-1.752 1.501-2.677 1.501-1.377 0-2.744-.938-2.51-2.707l.332-2.555c.235-1.829 1.752-2.738 3.173-2.738 1.42 0 2.676.91 2.44 2.693-.192 1.47-1.392 2.154-2.882 2.154a3.83 3.83 0 0 1-1.49-.297l-.084.743c-.107.775.47 1.19 1.148 1.206.538.014 1.198-.24 1.583-.775l.967.775zM158.193 105.562l-.24 1.77h1.436c.61 0 1.089-.403 1.169-1.086.094-.698-.371-.95-.944-.95-.716 0-1.036.09-1.421.266zm-.626 4.876c.347.179.653.268 1.384.268.743 0 1.301-.238 1.421-1.16.106-.803-.358-1.085-1.13-1.085h-1.42l-.255 1.977zm4.412-4.4c-.092.745-.465 1.367-.943 1.725.678.417.85 1.115.745 1.932-.24 1.68-1.369 2.305-3.163 2.305-.984 0-1.794-.268-2.618-.7l.838-6.6c.93-.432 1.938-.7 2.989-.7 1.369 0 2.327.73 2.152 2.038zM167.46 105.652c-.763-.49-2.488-.328-2.659 1.025l-.342 2.69c-.091.776.422 1.087 1.041 1.101.499.015 1.066-.179 1.408-.476l.553-4.34zm-.619 5.53c-.513.58-1.132.818-1.723.818-1.211 0-2.302-.997-2.092-2.632l.342-2.675c.263-2.022 1.71-2.693 3.183-2.693.83 0 1.765.285 2.449.685l-.882 7.167h-1.17l-.107-.67zM173.179 105.559l-.551 2.671c-.52 2.515-.995 3.858-3.628 3.765l.21-1.575c1.456.046 1.501-.477 2.022-3.041l.698-3.379H177l-1.068 7.995h-1.652l.877-6.436h-1.978zM180.744 108.818l-.655.572-.373 2.61H178l1.137-8h1.716l-.467 3.305 3.54-3.305H186l-3.93 3.721 2.744 4.279h-2.043z" mask="url(#d)"/>
        <path fill="#FEFEFE" d="M189.108 111.35c-.865.407-1.836.65-2.689.65-1.47-.015-2.624-.773-2.388-2.726l.642-5.274h1.443l-.64 5.303c-.069.864.59 1.258 1.297 1.258.354 0 .734-.09 1.036-.273l.76-6.288H190l-.892 7.35zM615 77l1.488-10H623l-.238 1.583h-4.782L616.712 77z" mask="url(#d)"/>
        <path fill="#FEFEFE" d="M624.46 70.652c-.763-.49-2.488-.328-2.659 1.025l-.342 2.69c-.091.776.422 1.087 1.041 1.101.499.015 1.066-.179 1.408-.476l.553-4.34zm-.619 5.53c-.513.58-1.132.818-1.723.818-1.211 0-2.302-.997-2.092-2.632l.342-2.675c.263-2.022 1.71-2.693 3.183-2.693.83 0 1.765.285 2.449.685l-.882 7.167h-1.17l-.107-.67zM630.432 75.155c.38.116.845.187 1.306.173.895 0 1.755-.302 1.97-1.105l.449-2.668c.147-.875-.68-1.205-1.624-1.19-.448 0-.942.085-1.356.242l-.745 4.548zm-.91-5.566c.991-.36 2.235-.589 3.36-.589 1.836.016 3.392.661 3.077 2.583l-.43 2.64c-.28 1.678-2.133 2.51-3.824 2.496-.528 0-1.04-.086-1.488-.259l-.399 2.54H628l1.522-9.411z" mask="url(#d)"/>
        <path fill="#FEFEFE" d="M636.711 73l-.288 2.356c-.09.788.522 1.118 1.124 1.118.6 0 1.267-.376 1.369-1.15l.379-3.247a2.876 2.876 0 0 0-1.174-.285c-.64.029-1.306.422-1.41 1.207m4.256-3.156l-.665 5.439c-.209 1.782-1.608 2.718-2.939 2.718-1.333 0-2.558-.862-2.337-2.644l.288-2.342c.209-1.768 1.58-2.613 2.846-2.599.47 0 .967.077 1.319.333l.13-1.042c.106-.876-.482-1.284-1.226-1.284-.51 0-1.045.135-1.477.453l-.64-1.027c.772-.652 1.503-.848 2.428-.848 1.32 0 2.522.862 2.273 2.843M644.765 72.332a4.57 4.57 0 0 0 1.42.252c.8 0 1.27-.445 1.297-1.041.029-.521-.358-.995-1.145-.995-.69 0-1.378.46-1.49 1.249l-.082.535zm3.448 3.167c-.73.98-1.752 1.501-2.677 1.501-1.377 0-2.744-.938-2.51-2.707l.332-2.555c.235-1.829 1.752-2.738 3.173-2.738 1.42 0 2.676.91 2.44 2.693-.192 1.47-1.392 2.154-2.882 2.154a3.83 3.83 0 0 1-1.49-.297l-.084.743c-.107.775.47 1.19 1.148 1.206.538.014 1.198-.24 1.583-.775l.967.775zM652.432 75.155c.38.116.845.187 1.306.173.895 0 1.755-.302 1.97-1.105l.449-2.668c.147-.875-.68-1.205-1.624-1.19-.448 0-.942.085-1.356.242l-.745 4.548zm-.91-5.566c.991-.36 2.235-.589 3.36-.589 1.836.016 3.392.661 3.077 2.583l-.43 2.64c-.28 1.678-2.133 2.51-3.824 2.496-.528 0-1.04-.086-1.488-.259l-.399 2.54H650l1.522-9.411zM659.88 71.663l-.33 2.601c-.097.728.536 1.145 1.167 1.145.592 0 1.32-.417 1.415-1.145l.33-2.601c.096-.729-.55-1.07-1.14-1.07-.631 0-1.345.341-1.443 1.07zm-1.51 0c.232-1.77 1.757-2.647 3.159-2.663 1.371.016 2.677.893 2.444 2.663l-.344 2.674c-.235 1.8-1.756 2.649-3.132 2.663-1.4-.014-2.703-.862-2.47-2.663l.342-2.674zM665.842 72.573l-.357 2.81c-.107.75.501 1.118 1.125 1.118.609 0 1.31-.368 1.402-1.119l.267-2.16c.105-.824-.412-1.12-1.06-1.12-.491 0-.94.147-1.377.471zM670 68.25c-.609.427-1.43.618-2.212.72-.742.09-1.524.164-1.642 1.178L666 71.22a2.774 2.774 0 0 1 1.642-.545c1.404 0 2.315.84 2.09 2.56l-.277 2.176c-.212 1.735-1.681 2.588-3.033 2.588-1.35 0-2.622-.853-2.397-2.588l.676-5.382c.224-1.81 1.641-2.294 2.86-2.426.901-.103 1.563-.28 2.12-.604l.318 1.25z" mask="url(#d)"/>
        <path stroke="#FEFEFE" stroke-linecap="round" stroke-linejoin="round" stroke-width=".808" d="M588 65v-5M588 63l8 5.486L595.979 81h-3.774v-7.824" mask="url(#d)"/>
        <path stroke="#FEFEFE" stroke-linecap="round" stroke-linejoin="round" stroke-width=".808" d="M586 83h8v-3M592 66l-4 3M588.956 63L587 64.647M588.057 69L588 80M570 60h24M577 65v-5M578 62l-9 5.627L570.037 80h3.765v-7.822" mask="url(#d)"/>
        <path stroke="#FEFEFE" stroke-linecap="round" stroke-linejoin="round" stroke-width=".808" d="M576 86h-6v-8M570 75h4M577 62l9 5.627L584.963 80h-3.767v-7.822" mask="url(#d)"/>
        <path stroke="#FEFEFE" stroke-linecap="round" stroke-linejoin="round" stroke-width=".808" d="M577 86h6v-8M585 75h-4M570 90h24" mask="url(#d)"/>
        <path stroke="#FEFEFE" stroke-linecap="round" stroke-linejoin="round" stroke-width=".924" d="M90.5 69.26c2.178.082 3.323-.922 3.475-3.26h2.588L104 70.055l-3.877 5.881-1.378-.635v12.505c-3.881 1.592-12.607 1.592-16.49 0V75.3l-1.376.635L77 70.055 84.44 66h2.587c.152 2.338 1.297 3.342 3.473 3.26zM88 66.145c2-.196 4-.192 6 .008M90 68v-3M89 60.736c.924-1 2.907-1.102 3.813.46.627 1.314-.389 2.795-2.052 2.804" mask="url(#d)"/>
        <path stroke="#403C3A" stroke-linecap="round" stroke-linejoin="round" stroke-width=".818" d="M429 183v-36.63c0-5.36 4.339-9.707 9.692-9.707h113.61c5.354 0 9.698-4.347 9.698-9.709V57" mask="url(#d)"/>
        <path stroke="#94C01F" stroke-linecap="round" stroke-linejoin="round" stroke-width=".818" d="M429 149v21" mask="url(#d)"/>
        <path fill="#94C01F" d="M424 168.999a5.002 5.002 0 0 0 5 5.001 5 5 0 1 0-5-5.001" mask="url(#d)"/>
        <path stroke="#94C01F" stroke-linecap="round" stroke-linejoin="round" stroke-width=".818" d="M330 147v10" mask="url(#d)"/>
        <path fill="#94C01F" d="M325 156a5 5 0 1 0 10 0 5 5 0 0 0-10 0" mask="url(#d)"/>
        <path stroke="#94C01F" stroke-linecap="round" stroke-linejoin="round" stroke-width=".818" d="M316 149v29" mask="url(#d)"/>
        <path fill="#94C01F" d="M311 178a5 5 0 1 0 10 0 5 5 0 0 0-10 0" mask="url(#d)"/>
        <path stroke="#403C3A" stroke-linecap="round" stroke-linejoin="round" stroke-width=".818" d="M235 57v52.695c0 5.363 4.34 9.71 9.693 9.71h75.616c5.353 0 9.691 4.347 9.691 9.71V147M316 120v29M69 57v52.695c0 5.363 4.39 9.71 9.807 9.71h139.388c5.416 0 9.805 4.347 9.805 9.71V147M191 120v29" mask="url(#d)"/>
        <path stroke="#94C01F" stroke-linecap="round" stroke-linejoin="round" stroke-width=".818" d="M191 131v125" mask="url(#d)"/>
        <path fill="#94C01F" d="M186 254.001a5 5 0 1 0 10.002 0A5 5 0 0 0 186 254" mask="url(#d)"/>
        <path stroke="#94C01F" stroke-linecap="round" stroke-linejoin="round" stroke-width=".818" d="M225 131v125" mask="url(#d)"/>
        <path fill="#94C01F" d="M220 254.001a5 5 0 1 0 10.001-.003A5 5 0 0 0 220 254" mask="url(#d)"/>
        <path stroke="#403C3A" stroke-linecap="round" stroke-linejoin="round" stroke-width=".818" d="M231 395v-31.895c0-2.604.994-5.103 2.763-6.936 4.823-5.003 14.721-15.38 19.512-20.413 1.744-1.832 2.725-4.31 2.725-6.897V203" mask="url(#d)"/>
        <path stroke="#94C01F" stroke-linecap="round" stroke-linejoin="round" stroke-width=".818" d="M456 300v-23" mask="url(#d)"/>
        <path fill="#94C01F" d="M461 278a5 5 0 1 0-10.001.001A5 5 0 0 0 461 278" mask="url(#d)"/>
        <path fill="#FEFEFE" d="M455.097 337l1.346-8.448H453l.254-1.552H462l-.256 1.552H458.3L456.955 337z" mask="url(#d)"/>
        <path fill="#FEFEFE" d="M466.796 336.368c-.306 1.827-2.106 2.645-3.807 2.632-1.27 0-2.49-.472-2.989-1.33l1.204-.872c.37.525 1.207.83 2.01.83.946 0 1.784-.485 1.96-1.593a5.427 5.427 0 0 1-1.67.278c-1.689-.028-3.199-.928-2.926-2.508l.771-4.805h1.767l-.786 4.778c-.066.735.74 1.135 1.589 1.15.516 0 1.061-.111 1.43-.318l.9-5.61H468l-1.204 7.368z" mask="url(#d)"/>
        <path fill="#FEFEFE" d="M471.46 330.652c-.763-.49-2.488-.328-2.659 1.025l-.342 2.69c-.091.776.422 1.087 1.041 1.101.499.015 1.066-.179 1.408-.476l.553-4.34zm-.619 5.53c-.513.58-1.132.818-1.723.818-1.211 0-2.302-.997-2.092-2.632l.342-2.675c.263-2.022 1.71-2.693 3.183-2.693.83 0 1.765.285 2.449.685l-.882 7.167h-1.17l-.107-.67zM479.179 330.559l-.551 2.671c-.52 2.515-.995 3.858-3.628 3.765l.21-1.575c1.456.046 1.501-.477 2.022-3.041l.698-3.379H483l-1.068 7.995h-1.652l.877-6.436h-1.978zM484.765 332.332a4.57 4.57 0 0 0 1.42.252c.8 0 1.27-.445 1.297-1.041.029-.521-.358-.995-1.145-.995-.69 0-1.378.46-1.49 1.249l-.082.535zm3.448 3.167c-.73.98-1.752 1.501-2.677 1.501-1.377 0-2.744-.938-2.51-2.707l.332-2.555c.235-1.829 1.752-2.738 3.173-2.738 1.42 0 2.676.91 2.44 2.693-.192 1.47-1.392 2.154-2.882 2.154a3.83 3.83 0 0 1-1.49-.297l-.084.743c-.107.775.47 1.19 1.148 1.206.538.014 1.198-.24 1.583-.775l.967.775zM489.916 329.833c.702-.485 1.716-.833 2.615-.833.858.015 1.647.363 1.97 1.105a2.763 2.763 0 0 1 2.22-1.105c1.309 0 2.475 1.014 2.251 2.743l-.677 5.257h-1.53l.674-5.197c.127-.713-.35-1.182-.956-1.182-.604 0-1.351.514-1.434 1.122l-.677 5.257h-1.518l.69-5.334c.085-.697-.463-1.03-1.111-1.045-.381-.014-.8.106-1.14.317L490.52 337H489l.916-7.167z" mask="url(#d)"/>
        <path stroke="#FEFEFE" stroke-linecap="round" stroke-linejoin="round" stroke-width=".808" d="M434.5 319a2.5 2.5 0 1 1-.001 5.001A2.5 2.5 0 0 1 434.5 319zM437 338c1.663 3.41 2.93 7.299 3 11M429.29 337.013c-3.09-4.748-.356-10.19 5.304-10.009 4.353.142 3.042 5.096 3.406 10.996" mask="url(#d)"/>
        <path stroke="#FEFEFE" stroke-linecap="round" stroke-linejoin="round" stroke-width=".808" d="M431.166 330c.316 1.053.638 2.104.778 3.29.527 4.445-2.844 10.311-2.944 16.71M439.846 337c2.177-4.322.918-7.227-.846-9M432 348.877c1.75-11.64 3.938-12.072 6 .123M415.499 319a2.498 2.498 0 0 0-2.499 2.499 2.5 2.5 0 1 0 2.499-2.499zM416.497 336c-1.262-2.9 4.33-4.769-.497-9M418.183 350c.303-4.255.207-4.903-.056-7.555 2.57.271 5.446-.898 5.873-3.344-3.45.453-5.77-2.1-6-3.101M414 340c.422 2.414.89 5.391.37 9M422 324c-.604-1.608-2.586-3.758-1.83-5M416 327l5-3M414.125 340c-2-2.013-1.15-4.46.15-6.394.943-1.4.966-3.464.07-6.606-5.266 2.563-4.816 3.817-3.442 7.488M418 342c-1.46-.286-2.898-.81-4-2" mask="url(#d)"/>
        <path stroke="#403C3A" stroke-linecap="round" stroke-linejoin="round" stroke-width=".818" d="M400 351v-33.533c0-4.824 3.935-8.733 8.788-8.733h38.424c4.853 0 8.788-3.909 8.788-8.734" mask="url(#d)"/>
    </g>
</svg>
