<svg xmlns="http://www.w3.org/2000/svg" width="65" height="102" viewBox="0 0 65 102">
    <g fill="none" fill-rule="evenodd" stroke="#FFF" stroke-width="3" transform="translate(3 3)">
        <path d="M29.5 0l4.917 6.453 7.151-3.854 1.877 7.887 8.046-.628-1.43 7.977 7.598 2.689-4.559 6.721 5.9 5.557-6.973 4.302 3.13 7.438-8.046 1.076-.18 8.156-7.776-2.33-3.487 7.348-6.168-5.287-6.168 5.287-3.487-7.349-7.777 2.33-.179-8.155-8.045-1.076 3.129-7.438L0 32.802l5.9-5.557-4.56-6.721 7.6-2.69-1.43-7.976 8.045.628 1.877-7.887 7.151 3.854z"/>
        <path d="M15.286 51.997V95L29.5 83.528 43.714 95V62.019"/>
        <ellipse cx="29.5" cy="29.575" rx="11.621" ry="11.651"/>
    </g>
</svg>
