<svg xmlns="http://www.w3.org/2000/svg" width="32" height="49" viewBox="0 0 32 49">
    <g fill="#7DCC4A">
        <path d="M15.642.486C7.033.486.058 7.336.058 15.786c0 9.814 11.042 17.472 12.856 28.439 0 0 .23 2.322.455 3.067.273.905 1.264 1.455 2.275 1.455 1.012 0 2.003-.553 2.275-1.455.223-.742.456-3.067.456-3.067C20.192 33.258 31.231 25.6 31.231 15.786c-.003-8.45-6.981-15.3-15.59-15.3zm0 26.145c-5.834 0-10.559-4.731-10.559-10.559 0-5.833 4.725-10.558 10.559-10.558 5.833 0 10.558 4.725 10.558 10.558 0 5.828-4.725 10.559-10.558 10.559z"/>
        <path d="M15.642 9.533a6.536 6.536 0 0 0 0 13.07 6.536 6.536 0 1 0 0-13.07z"/>
    </g>
</svg>
