<svg xmlns="http://www.w3.org/2000/svg" width="100" height="100" viewBox="0 0 100 100">
    <g fill="none" fill-rule="evenodd">
        <path fill="#FFF" fill-rule="nonzero" d="M31.111 4c-1.819 0-3.405.615-4.757 1.597-1.315.955-2.45 2.358-2.882 4.271 0 .005-.033-.004-.035 0l-.034.139-2.847 11.77h-9.55C4.939 21.778 0 26.813 0 32.89V84c0 6.077 4.938 11.111 11.007 11.111h66.77a3.334 3.334 0 1 0 0-6.667h-66.77c-2.448 0-4.34-1.903-4.34-4.444V32.889c0-2.541 1.892-4.445 4.34-4.445h77.986c2.448 0 4.34 1.904 4.34 4.445V84c0 2.54-1.892 4.444-4.34 4.444a3.334 3.334 0 1 0 0 6.667C95.062 95.111 100 90.077 100 84V32.889c0-6.077-4.938-11.111-11.007-11.111h-9.549l-2.847-11.771c-.01-.05-.024-.09-.034-.139h-.035c-.432-1.913-1.567-3.316-2.882-4.27C72.294 4.614 70.708 4 68.889 4H31.11zm0 6.667H68.89c.064 0 .526.09.833.312.23.167.326.368.347.382l.035.07 2.5 10.347H27.396l2.5-10.347.035-.07c.021-.014.117-.215.347-.382.307-.223.769-.312.833-.312zM50 32.889c-14.074 0-25.556 11.481-25.556 25.555C24.444 72.52 35.926 84 50 84c14.074 0 25.556-11.481 25.556-25.556C75.556 44.37 64.074 32.89 50 32.89zm0 6.667a18.839 18.839 0 0 1 18.889 18.888A18.839 18.839 0 0 1 50 77.334a18.839 18.839 0 0 1-18.889-18.89A18.839 18.839 0 0 1 50 39.556zm-9.27 15.52a3.334 3.334 0 0 0-2.952 3.368c0 6.711 5.511 12.223 12.222 12.223A3.334 3.334 0 1 0 50 64c-3.108 0-5.556-2.448-5.556-5.556a3.334 3.334 0 0 0-3.402-3.368 3.334 3.334 0 0 0-.313 0z"/>
        <path d="M0 0h100v100H0z"/>
    </g>
</svg>
