<svg xmlns="http://www.w3.org/2000/svg" width="98" height="98" viewBox="0 0 98 98">
    <g fill="none" fill-rule="evenodd">
        <path stroke="#7DCC4A" stroke-width="3" d="M0 48.9C0 22 22 0 48.9 0s48.9 22 48.9 48.9-22 48.9-48.9 48.9S0 75.8 0 48.9z"/>
        <path fill="#7DCC4A" d="M32.1 72.1V25.7c0-1.9 1.6-3.5 3.5-3.5s3.5 1.6 3.5 3.5v40.4l29.7-17.2-19.4-11.2c-1.7-1-2.2-3.1-1.3-4.8 1-1.7 3.1-2.2 4.8-1.3l24.6 14.3c1.1.6 1.8 1.8 1.8 3s-.7 2.4-1.8 3L37.3 75.1c-.5.3-1.1.5-1.8.5s-1.2-.2-1.8-.5c-1-.6-1.6-1.7-1.6-3z"/>
    </g>
</svg>
