<svg xmlns="http://www.w3.org/2000/svg" width="100" height="100" viewBox="0 0 100 100">
    <g fill="#fff" stroke="#7DCC4A" stroke-linecap="round" stroke-linejoin="round" stroke-width="3">
        <path d="M38.799 1.902c16.942-6.043 35.577 2.792 41.62 19.736 6.042 16.941-2.793 35.577-19.737 41.62-16.941 6.042-35.575-2.793-41.618-19.735C13.02 26.58 21.857 7.944 38.799 1.903z"/>
        <path d="M66.89 36.008l-1.714 12.006H34.303l-1.715-12.006m17.769-17.151l6.244 17.15m-13.721.001l6.243-17.15m19.242 6.859l-1.475 10.29m-10.29.001l10.29-10.29m-34.302-.001l10.291 10.29m-10.291.001l-1.475-10.29M49.74 11.995a3.43 3.43 0 1 1-.002 6.86 3.43 3.43 0 0 1 .002-6.86zm-18.868 6.862a3.428 3.428 0 0 1 3.43 3.429 3.428 3.428 0 1 1-6.859 0 3.43 3.43 0 0 1 3.43-3.43zm37.734 0a3.428 3.428 0 0 1 3.429 3.429 3.428 3.428 0 1 1-6.859 0 3.43 3.43 0 0 1 3.43-3.43zm-26.048 53.17L27.443 99.468l-5.146-13.72H5.145l18.867-30.871M53.17 65.166l18.866 34.302 5.146-13.72h17.152L78.682 60.02m12.222-24.012h8.575m-8.575-6.861l5.71-5.146m-5.71 18.869l5.71 5.145M8.575 36.008H0m8.575-6.861l-5.71-5.146m5.71 18.869l-5.71 5.145"/>
    </g>
</svg>
