<?xml version="1.0" encoding="UTF-8"?><!DOCTYPE svg PUBLIC "-//W3C//DTD SVG 1.1//EN" "http://www.w3.org/Graphics/SVG/1.1/DTD/svg11.dtd"><svg xmlns="http://www.w3.org/2000/svg"><symbol id="icon-left" viewBox="0 0 12 21">
    <path fill-rule="evenodd" d="M10.688.25a.654.654 0 0 1 .468.195c.13.13.196.29.196.479a.65.65 0 0 1-.196.478L2.25 10.31l8.79 8.789a.64.64 0 0 1 .194.468.64.64 0 0 1-.195.47.65.65 0 0 1-.478.194.65.65 0 0 1-.479-.195L.824 10.777a.64.64 0 0 1-.195-.468.64.64 0 0 1 .195-.47L10.22.446a.68.68 0 0 1 .469-.195z"/>
</symbol><symbol id="icon-menu-open" viewBox="0 0 30 24">
    <path fill-rule="evenodd" d="M1.44 21.12h27.12a1.44 1.44 0 0 1 0 2.88H1.44a1.44 1.44 0 0 1 0-2.88zm0-10.56h12.604a1.44 1.44 0 0 1 0 2.88H1.44a1.44 1.44 0 0 1 0-2.88zM1.44 0h21.314a1.44 1.44 0 0 1 0 2.88H1.44a1.44 1.44 0 1 1 0-2.88z"/>
</symbol></svg>