<?xml version="1.0" encoding="UTF-8"?><!DOCTYPE svg PUBLIC "-//W3C//DTD SVG 1.1//EN" "http://www.w3.org/Graphics/SVG/1.1/DTD/svg11.dtd"><svg xmlns="http://www.w3.org/2000/svg"><defs>
        <style>
            .cls-1{fill:#c0d5b3;fill-rule:evenodd}
        </style>
    
        <style>
            .cls-1{fill:#c0d5b3;fill-rule:evenodd}
        </style>
    
        <style>
            .cls-1{fill:#c0d5b3;fill-rule:evenodd}
        </style>
    
        <style>
            .cls-1{fill:#c0d5b3;fill-rule:evenodd}
        </style>
    
        <style>
            .cls-1{fill:#c0d5b3;fill-rule:evenodd}
        </style>
    </defs><symbol id="icon-checkmark" viewBox="0 0 10 9">
    <path fill-rule="evenodd" d="M8.695.023a.82.82 0 0 1 .68.165.977.977 0 0 1 .375.62.906.906 0 0 1-.164.715L4.734 8.602a.965.965 0 0 1-.597.375.802.802 0 0 1-.668-.165c-.125-.093-.453-.425-.985-.996a82.877 82.877 0 0 1-1.5-1.652l-.726-.797A.97.97 0 0 1 0 4.687a.93.93 0 0 1 .281-.68.859.859 0 0 1 1.29.048l2.32 2.508L8.109.397a.96.96 0 0 1 .586-.375z"/>
</symbol><symbol id="icon-copy" viewBox="0 0 10 7">
    <path fill-rule="evenodd" d="M8.82 0L10 1.18l-5 5-5-5L1.18 0 5 3.84z"/>
</symbol><symbol id="icon-fb" viewBox="0 0 22 22">
    
    <title>
        social_fb
    </title>
    <path class="cls-1" d="M20.78 0H1.22A1.22 1.22 0 0 0 0 1.22v19.56A1.22 1.22 0 0 0 1.22 22h10.53v-8.52H8.88v-3.32h2.87V7.71A4 4 0 0 1 16 3.33a23.67 23.67 0 0 1 2.56.13v3h-1.74c-1.38 0-1.64.65-1.64 1.61v2.12h3.28L18 13.48h-2.82V22h5.6A1.22 1.22 0 0 0 22 20.78V1.22A1.22 1.22 0 0 0 20.78 0"/>
</symbol><symbol id="icon-instagram" viewBox="0 0 22 22">
    
    <title>
        social_in
    </title>
    <path class="cls-1" d="M11 2c2.94 0 3.28 0 4.44.07a5.9 5.9 0 0 1 2 .38 3.39 3.39 0 0 1 1.26.82 3.44 3.44 0 0 1 .82 1.26 6.13 6.13 0 0 1 .38 2c.1 1.18.1 1.53.1 4.47s0 3.28-.06 4.44a6.07 6.07 0 0 1-.38 2 3.48 3.48 0 0 1-.82 1.27 3.52 3.52 0 0 1-1.26.82 6.15 6.15 0 0 1-2 .38c-1.2.09-1.54.09-4.48.09H6.56a6.15 6.15 0 0 1-2-.38 3.44 3.44 0 0 1-1.26-.82 3.48 3.48 0 0 1-.82-1.27 6.07 6.07 0 0 1-.38-2C2 14.28 2 13.93 2 11s0-3.29.07-4.45a6.13 6.13 0 0 1 .38-2 3.44 3.44 0 0 1 .82-1.26 3.32 3.32 0 0 1 1.26-.82 5.9 5.9 0 0 1 2.05-.38C7.72 2 8.06 2 11 2m0-2C8 0 7.64 0 6.47.07A8 8 0 0 0 3.8.58a5.34 5.34 0 0 0-1.95 1.27A5.39 5.39 0 0 0 .58 3.79a8 8 0 0 0-.51 2.67C0 7.64 0 8 0 11s0 3.36.07 4.53a8 8 0 0 0 .51 2.67 5.42 5.42 0 0 0 1.27 1.95 5.34 5.34 0 0 0 1.95 1.27 8.31 8.31 0 0 0 2.67.51C7.64 22 8 22 11 22s3.36 0 4.53-.06a8.31 8.31 0 0 0 2.67-.51 5.34 5.34 0 0 0 1.95-1.27 5.42 5.42 0 0 0 1.27-1.95 8 8 0 0 0 .51-2.67C22 14.36 22 14 22 11s0-3.36-.07-4.54a8 8 0 0 0-.51-2.67 5.39 5.39 0 0 0-1.27-1.94A5.34 5.34 0 0 0 18.2.58a8 8 0 0 0-2.67-.51C14.36 0 14 0 11 0"/>
    <path class="cls-1" d="M11 5.35A5.65 5.65 0 1 0 16.65 11 5.65 5.65 0 0 0 11 5.35m0 9.31A3.67 3.67 0 1 1 14.67 11 3.67 3.67 0 0 1 11 14.66"/>
    <path class="cls-1" d="M18.19 5.13a1.32 1.32 0 1 1-1.32-1.32 1.32 1.32 0 0 1 1.32 1.32"/>
</symbol><symbol id="icon-invalid-name" viewBox="0 0 10 7">
    <path fill-rule="evenodd" d="M8.82 0L10 1.18l-5 5-5-5L1.18 0 5 3.84z"/>
</symbol><symbol id="icon-left" viewBox="0 0 12 21">
    <path fill-rule="evenodd" d="M10.688.25a.654.654 0 0 1 .468.195c.13.13.196.29.196.479a.65.65 0 0 1-.196.478L2.25 10.31l8.79 8.789a.64.64 0 0 1 .194.468.64.64 0 0 1-.195.47.65.65 0 0 1-.478.194.65.65 0 0 1-.479-.195L.824 10.777a.64.64 0 0 1-.195-.468.64.64 0 0 1 .195-.47L10.22.446a.68.68 0 0 1 .469-.195z"/>
</symbol><symbol id="icon-menu-open" viewBox="0 0 30 24">
    <path fill-rule="evenodd" d="M1.44 21.12h27.12a1.44 1.44 0 0 1 0 2.88H1.44a1.44 1.44 0 0 1 0-2.88zm0-10.56h12.604a1.44 1.44 0 0 1 0 2.88H1.44a1.44 1.44 0 0 1 0-2.88zM1.44 0h21.314a1.44 1.44 0 0 1 0 2.88H1.44a1.44 1.44 0 1 1 0-2.88z"/>
</symbol><symbol id="icon-note-wt" viewBox="0 0 17 20">
    <style>
        .st0{fill:#fff}
    </style>
    <path class="st0" d="M17 20H0V2h17v18zM1 19h15V3H1v16z"/>
    <path class="st0" d="M14 15H3v-1h11v1zm0-2H3v-1h11v1zm-3-4H6V8h5v1zm2-4.9h-1V0h1v4.1zm-4 0H8V0h1v4.1zm-4 0H4V0h1v4.1z"/>
</symbol><symbol id="icon-ok" viewBox="0 0 22 22">
    
    <title>
        social_ok
    </title>
    <path class="cls-1" d="M13.3 16a11 11 0 0 0 3.3-1.36 1.66 1.66 0 0 0-1.77-2.81 7.25 7.25 0 0 1-7.66 0 1.67 1.67 0 0 0-2.29.52 1.66 1.66 0 0 0 .52 2.29A11 11 0 0 0 8.7 16l-3.18 3.17a1.65 1.65 0 0 0 0 2.34 1.67 1.67 0 0 0 2.36 0l3.12-3.1 3.12 3.1a1.67 1.67 0 0 0 2.35 0 1.65 1.65 0 0 0 0-2.34L13.3 16"/>
    <path class="cls-1" d="M11 0a5.69 5.69 0 1 0 5.69 5.69A5.69 5.69 0 0 0 11 0m0 8.05a2.36 2.36 0 1 1 2.36-2.36A2.36 2.36 0 0 1 11 8.05"/>
</symbol><symbol id="icon-page-1" viewBox="0 0 12 78">
    <path fill-rule="evenodd" d="M5.002 0v66.901H0L6 78l6-11.099H7V0z"/>
</symbol><symbol id="icon-person" viewBox="0 0 14 14">
    <path fill-rule="evenodd" d="M9.48 5.98C8.798 6.66 7.971 7 7 7s-1.799-.34-2.48-1.02C3.84 5.298 3.5 4.471 3.5 3.5s.34-1.799 1.02-2.48C5.202.34 6.029 0 7 0s1.799.34 2.48 1.02c.68.681 1.02 1.508 1.02 2.48s-.34 1.799-1.02 2.48zM2.405 9.733C4.01 9.078 5.542 8.75 7 8.75c1.458 0 2.99.322 4.594.966C13.198 10.36 14 11.205 14 12.25V14H0v-1.75c0-1.045.802-1.884 2.406-2.516z"/>
</symbol><symbol id="icon-photo" viewBox="0 0 100 100">
    <g fill-rule="evenodd">
        <path fill-rule="nonzero" d="M31.111 4c-1.819 0-3.405.615-4.757 1.597-1.315.955-2.45 2.358-2.882 4.271 0 .005-.033-.004-.035 0l-.034.139-2.847 11.77h-9.55C4.939 21.778 0 26.813 0 32.89V84c0 6.077 4.938 11.111 11.007 11.111h66.77a3.334 3.334 0 1 0 0-6.667h-66.77c-2.448 0-4.34-1.903-4.34-4.444V32.889c0-2.541 1.892-4.445 4.34-4.445h77.986c2.448 0 4.34 1.904 4.34 4.445V84c0 2.54-1.892 4.444-4.34 4.444a3.334 3.334 0 1 0 0 6.667C95.062 95.111 100 90.077 100 84V32.889c0-6.077-4.938-11.111-11.007-11.111h-9.549l-2.847-11.771c-.01-.05-.024-.09-.034-.139h-.035c-.432-1.913-1.567-3.316-2.882-4.27C72.294 4.614 70.708 4 68.889 4H31.11zm0 6.667H68.89c.064 0 .526.09.833.312.23.167.326.368.347.382l.035.07 2.5 10.347H27.396l2.5-10.347.035-.07c.021-.014.117-.215.347-.382.307-.223.769-.312.833-.312zM50 32.889c-14.074 0-25.556 11.481-25.556 25.555C24.444 72.52 35.926 84 50 84c14.074 0 25.556-11.481 25.556-25.556C75.556 44.37 64.074 32.89 50 32.89zm0 6.667a18.839 18.839 0 0 1 18.889 18.888A18.839 18.839 0 0 1 50 77.334a18.839 18.839 0 0 1-18.889-18.89A18.839 18.839 0 0 1 50 39.556zm-9.27 15.52a3.334 3.334 0 0 0-2.952 3.368c0 6.711 5.511 12.223 12.222 12.223A3.334 3.334 0 1 0 50 64c-3.108 0-5.556-2.448-5.556-5.556a3.334 3.334 0 0 0-3.402-3.368 3.334 3.334 0 0 0-.313 0z"/>
        <path d="M0 0h100v100H0z"/>
    </g>
</symbol><symbol id="icon-plan" viewBox="0 0 100 100">
    <g fill-rule="evenodd">
        <path d="M0 0h100v100H0z"/>
        <path fill-rule="nonzero" d="M91.823 100H7V0h87.841v81.051H28.444V57.484h36.058V46.02H28.444V20.86h42.253a3.19 3.19 0 0 1 3.177 3.186 3.19 3.19 0 0 1-3.177 3.184h-35.9v12.26h36.059v24.204H34.798v10.828h53.848V6.53H13.513v87.1h78.31A3.19 3.19 0 0 1 95 96.815 3.19 3.19 0 0 1 91.823 100z"/>
    </g>
</symbol><symbol id="icon-play" viewBox="0 0 98 98">
    <style>
        .st0{fill:#7dcc4a}
    </style>
    <path class="st0" d="M48.9 99.3c-27.8 0-50.4-22.6-50.4-50.4S21.1-1.5 48.9-1.5s50.4 22.6 50.4 50.4-22.6 50.4-50.4 50.4zm0-97.8C22.8 1.5 1.5 22.8 1.5 48.9s21.3 47.4 47.4 47.4S96.3 75 96.3 48.9 75 1.5 48.9 1.5z"/>
    <path class="st0" d="M32.1 72.1V25.7c0-1.9 1.6-3.5 3.5-3.5s3.5 1.6 3.5 3.5v40.4l29.7-17.2-19.4-11.2c-1.7-1-2.2-3.1-1.3-4.8 1-1.7 3.1-2.2 4.8-1.3l24.6 14.3c1.1.6 1.8 1.8 1.8 3s-.7 2.4-1.8 3L37.3 75.1c-.5.3-1.1.5-1.8.5s-1.2-.2-1.8-.5c-1-.6-1.6-1.7-1.6-3z"/>
</symbol><symbol id="icon-prime-wt" viewBox="0 0 100 100">
    <style>
        .st0{fill:#fff}
    </style>
    <path class="st0" d="M49.8 66.7c-14 0-27.2-8.7-32.1-22.6-3.1-8.6-2.6-17.8 1.3-26S29.7 3.5 38.3.5l.5 1.4-.5-1.4c8.6-3.1 17.8-2.6 26 1.3 8.2 3.9 14.4 10.8 17.5 19.3 3.1 8.6 2.6 17.8-1.3 26-3.9 8.2-10.8 14.4-19.3 17.5-3.8 1.4-7.6 2.1-11.4 2.1zm0-65.2c-3.5 0-7 .6-10.5 1.8-7.8 2.8-14.1 8.5-17.6 16-3.6 7.5-4 15.9-1.2 23.8C26.2 59.2 44 67.6 60.2 61.8c7.8-2.8 14.1-8.5 17.6-16 3.6-7.5 4-15.9 1.2-23.8-2.8-7.8-8.5-14.1-16-17.6-4.2-1.9-8.7-2.9-13.2-2.9z"/>
    <path class="st0" d="M72 101c-.5 0-1-.3-1.3-.8L51.9 65.9c-.4-.7-.1-1.6.6-2 .7-.4 1.6-.1 2 .6l17.3 31.4 4-10.7c.2-.6.8-1 1.4-1h14.5L77.4 60.8c-.4-.7-.2-1.6.5-2.1.7-.4 1.6-.2 2.1.5L95.6 85c.3.5.3 1 0 1.5s-.8.8-1.3.8H78.2L73.4 100c-.2.5-.7.9-1.3 1H72zm-44.6 0h-.1c-.6 0-1.1-.4-1.3-1l-4.8-12.7H5.1c-.5 0-1-.3-1.3-.8-.3-.5-.3-1.1 0-1.5l18.9-30.9c.4-.7 1.4-.9 2.1-.5.7.4.9 1.4.5 2.1L7.8 84.2h14.5c.6 0 1.2.4 1.4 1l4 10.7 13.5-24.6c.4-.7 1.3-1 2-.6s1 1.3.6 2l-15.1 27.4c-.2.6-.7.9-1.3.9zm69.2-51.5c-.4 0-.7-.1-1-.4L89.9 44c-.6-.6-.7-1.5-.1-2.1.6-.6 1.5-.7 2.1-.1l5.7 5.1c.6.6.7 1.5.1 2.1-.3.3-.7.5-1.1.5zm-93.7 0c-.4 0-.8-.2-1.1-.5-.6-.6-.5-1.6.1-2.1l5.7-5.1c.6-.6 1.6-.5 2.1.1.6.6.5 1.6-.1 2.1l-5.7 5.1c-.3.3-.7.4-1 .4zm62.3 0H34.3c-.7 0-1.4-.5-1.5-1.3l-1.7-12-1.3-9.1c-2.2-.5-3.9-2.5-3.9-4.8 0-2.7 2.2-4.9 4.9-4.9 1.3 0 2.6.5 3.5 1.4.9.9 1.4 2.2 1.4 3.5 0 1.3-.5 2.4-1.2 3.3l7.7 7.7 5-13.6c-1.4-.9-2.4-2.4-2.4-4.2 0-2.7 2.2-4.9 4.9-4.9 1.3 0 2.6.5 3.5 1.4.9.9 1.4 2.2 1.4 3.5 0 1.8-1 3.4-2.4 4.2l5 13.6 7.7-7.7c-.8-.9-1.2-2-1.2-3.3 0-2.7 2.2-4.9 4.9-4.9s4.9 2.2 4.9 4.9c0 2.4-1.7 4.3-3.9 4.8l-1.3 9.1-1.7 12c0 .8-.7 1.3-1.4 1.3zm-29.6-3h28.3l1.5-10.7 1.1-7.6-8.8 8.8-.2.2c-.6.4-1.4.4-2-.1-.2-.2-.3-.4-.4-.6l-5.4-14.9-5.5 15c-.3.8-1.1 1.2-1.9.9-.2-.1-.4-.2-.6-.4L33 28.2l1.1 7.6 1.5 10.7zm33-26.1c-.5 0-1 .2-1.4.6-.4.4-.6.8-.6 1.4 0 1.1.9 1.9 1.9 1.9s1.9-.9 1.9-1.9c.1-1.2-.7-2-1.8-2zm-37.7 0c-.5 0-1 .2-1.4.6s-.6.8-.6 1.4c0 1.1.9 1.9 1.9 1.9s1.9-.9 1.9-1.9c0-.5-.2-1-.6-1.4s-.7-.6-1.2-.6zm18.8-6.9c-1.1 0-1.9.9-1.9 1.9 0 1.1.9 1.9 1.9 1.9 1.1 0 1.9-.9 1.9-1.9 0-.5-.2-1-.6-1.4-.3-.3-.7-.5-1.3-.5zm49.8 24h-8.6c-.8 0-1.5-.7-1.5-1.5s.7-1.5 1.5-1.5h8.6c.8 0 1.5.7 1.5 1.5s-.7 1.5-1.5 1.5zm-90.9 0H0c-.8 0-1.5-.7-1.5-1.5s.7-1.5 1.5-1.5h8.6c.8 0 1.5.7 1.5 1.5s-.7 1.5-1.5 1.5zm82.3-6.9c-.4 0-.8-.2-1.1-.5-.6-.6-.5-1.6.1-2.1l5.7-5.1c.6-.6 1.6-.5 2.1.1.6.6.5 1.6-.1 2.1l-5.7 5.1c-.3.3-.6.4-1 .4zm-82.3 0c-.4 0-.7-.1-1-.4l-5.7-5.1c-.6-.6-.7-1.5-.1-2.1.6-.6 1.5-.7 2.1-.1L9.6 28c.6.6.7 1.5.1 2.1-.3.4-.7.5-1.1.5z"/>
</symbol><symbol id="icon-usd-wt" viewBox="0 0 20 20">
    <style>
        .st0{fill:#fff}
    </style>
    <path class="st0" d="M10 20C4.5 20 0 15.5 0 10S4.5 0 10 0s10 4.5 10 10-4.5 10-10 10zm0-19c-5 0-9 4-9 9s4 9 9 9 9-4 9-9-4-9-9-9z"/>
    <path class="st0" d="M10.4 16.8h-.8v-1.1C7.5 15.6 6 14.3 6 12.6h1c.1 1.2 1.1 2.1 2.6 2.2v-4.5l-.4-.1c-2-.5-2.9-1.4-2.9-2.9 0-1.7 1.3-2.9 3.3-3V3.1h.8v1.1c1.9.1 3.3 1.4 3.4 3h-1c0-1.1-1-1.9-2.3-2.1v4.3l.5.1c2.2.5 3.1 1.5 3.1 3 0 1.8-1.4 3-3.6 3.2-.1 0-.1 1.1-.1 1.1zm2.6-4.2c0-1.2-.7-1.8-2.5-2.2v4.4c1.5-.1 2.5-.9 2.5-2.2zM7.3 7.2c0 1.1.7 1.7 2.3 2V5.1c-1.3.1-2.3 1-2.3 2.1z"/>
</symbol><symbol id="icon-vk" viewBox="0 0 22 22">
    
    <title>
        social_vk
    </title>
    <path class="cls-1" d="M18.22 11.3s2.89-4.08 3.17-5.42c.1-.48-.11-.75-.61-.75h-2.51a.91.91 0 0 0-.95.62 22.85 22.85 0 0 1-3 4.7c-.53.59-.8.77-1.09.77s-.34-.2-.34-.73V5.84c0-.65-.08-.84-.61-.84h-4c-.31 0-.5.18-.5.42 0 .61.94.75.94 2.41v3.43c0 .69 0 1-.37 1-.86 0-2.9-3-4.05-6.33C4 5.19 3.79 5 3.14 5H.63a.6.6 0 0 0-.63.61c0 .67.78 3.77 3.87 7.92 2.06 2.8 4.78 4.31 7.23 4.31 1.49 0 1.85-.25 1.85-.88v-2.14c0-.54.22-.77.52-.77s.95.11 2.37 1.51c1.69 1.61 1.8 2.28 2.72 2.28h2.81c.29 0 .56-.13.56-.61s-.82-1.76-2.09-3.1c-.51-.69-1.35-1.44-1.62-1.78s-.27-.63 0-1"/>
</symbol><symbol id="icon-yt" viewBox="0 0 22 22">
    
    <title>
        social_yt
    </title>
    <path class="cls-1" d="M21.77 6.34a4.81 4.81 0 0 0-.88-2.19 3.15 3.15 0 0 0-2.2-.93C15.61 3 11 3 11 3s-4.63 0-7.7.22a3.18 3.18 0 0 0-2.21.93 4.75 4.75 0 0 0-.87 2.19A33.26 33.26 0 0 0 0 9.9v1.67a33.26 33.26 0 0 0 .22 3.56 4.75 4.75 0 0 0 .87 2.19 3.83 3.83 0 0 0 2.43.94c1.76.17 7.47.22 7.47.22s4.62 0 7.7-.23a3.15 3.15 0 0 0 2.2-.93 4.81 4.81 0 0 0 .88-2.19 33.26 33.26 0 0 0 .23-3.56V9.9a33.26 33.26 0 0 0-.23-3.56zm-13 7.25V7.41l5.94 3.1z"/>
</symbol></svg>