<?xml version="1.0" encoding="UTF-8"?><!DOCTYPE svg PUBLIC "-//W3C//DTD SVG 1.1//EN" "http://www.w3.org/Graphics/SVG/1.1/DTD/svg11.dtd"><svg xmlns="http://www.w3.org/2000/svg"><defs>
        <style>
            .cls-1{fill:#c0d5b3;fill-rule:evenodd}
        </style>
    
        <style>
            .cls-1{fill:#c0d5b3;fill-rule:evenodd}
        </style>
    
        <style>
            .cls-1{fill:#c0d5b3;fill-rule:evenodd}
        </style>
    
        <style>
            .cls-1{fill:#c0d5b3;fill-rule:evenodd}
        </style>
    
        <style>
            .cls-1{fill:#c0d5b3;fill-rule:evenodd}
        </style>
    </defs><symbol id="icon-checkmark" viewBox="0 0 10 9">
    <path fill-rule="evenodd" d="M8.695.023a.82.82 0 0 1 .68.165.977.977 0 0 1 .375.62.906.906 0 0 1-.164.715L4.734 8.602a.965.965 0 0 1-.597.375.802.802 0 0 1-.668-.165c-.125-.093-.453-.425-.985-.996a82.877 82.877 0 0 1-1.5-1.652l-.726-.797A.97.97 0 0 1 0 4.687a.93.93 0 0 1 .281-.68.859.859 0 0 1 1.29.048l2.32 2.508L8.109.397a.96.96 0 0 1 .586-.375z"/>
</symbol><symbol id="icon-fb" viewBox="0 0 22 22">
    
    <title>
        social_fb
    </title>
    <path class="cls-1" d="M20.78 0H1.22A1.22 1.22 0 0 0 0 1.22v19.56A1.22 1.22 0 0 0 1.22 22h10.53v-8.52H8.88v-3.32h2.87V7.71A4 4 0 0 1 16 3.33a23.67 23.67 0 0 1 2.56.13v3h-1.74c-1.38 0-1.64.65-1.64 1.61v2.12h3.28L18 13.48h-2.82V22h5.6A1.22 1.22 0 0 0 22 20.78V1.22A1.22 1.22 0 0 0 20.78 0"/>
</symbol><symbol id="icon-instagram" viewBox="0 0 22 22">
    
    <title>
        social_in
    </title>
    <path class="cls-1" d="M11 2c2.94 0 3.28 0 4.44.07a5.9 5.9 0 0 1 2 .38 3.39 3.39 0 0 1 1.26.82 3.44 3.44 0 0 1 .82 1.26 6.13 6.13 0 0 1 .38 2c.1 1.18.1 1.53.1 4.47s0 3.28-.06 4.44a6.07 6.07 0 0 1-.38 2 3.48 3.48 0 0 1-.82 1.27 3.52 3.52 0 0 1-1.26.82 6.15 6.15 0 0 1-2 .38c-1.2.09-1.54.09-4.48.09H6.56a6.15 6.15 0 0 1-2-.38 3.44 3.44 0 0 1-1.26-.82 3.48 3.48 0 0 1-.82-1.27 6.07 6.07 0 0 1-.38-2C2 14.28 2 13.93 2 11s0-3.29.07-4.45a6.13 6.13 0 0 1 .38-2 3.44 3.44 0 0 1 .82-1.26 3.32 3.32 0 0 1 1.26-.82 5.9 5.9 0 0 1 2.05-.38C7.72 2 8.06 2 11 2m0-2C8 0 7.64 0 6.47.07A8 8 0 0 0 3.8.58a5.34 5.34 0 0 0-1.95 1.27A5.39 5.39 0 0 0 .58 3.79a8 8 0 0 0-.51 2.67C0 7.64 0 8 0 11s0 3.36.07 4.53a8 8 0 0 0 .51 2.67 5.42 5.42 0 0 0 1.27 1.95 5.34 5.34 0 0 0 1.95 1.27 8.31 8.31 0 0 0 2.67.51C7.64 22 8 22 11 22s3.36 0 4.53-.06a8.31 8.31 0 0 0 2.67-.51 5.34 5.34 0 0 0 1.95-1.27 5.42 5.42 0 0 0 1.27-1.95 8 8 0 0 0 .51-2.67C22 14.36 22 14 22 11s0-3.36-.07-4.54a8 8 0 0 0-.51-2.67 5.39 5.39 0 0 0-1.27-1.94A5.34 5.34 0 0 0 18.2.58a8 8 0 0 0-2.67-.51C14.36 0 14 0 11 0"/>
    <path class="cls-1" d="M11 5.35A5.65 5.65 0 1 0 16.65 11 5.65 5.65 0 0 0 11 5.35m0 9.31A3.67 3.67 0 1 1 14.67 11 3.67 3.67 0 0 1 11 14.66"/>
    <path class="cls-1" d="M18.19 5.13a1.32 1.32 0 1 1-1.32-1.32 1.32 1.32 0 0 1 1.32 1.32"/>
</symbol><symbol id="icon-invalid-name" viewBox="0 0 10 7">
    <path fill-rule="evenodd" d="M8.82 0L10 1.18l-5 5-5-5L1.18 0 5 3.84z"/>
</symbol><symbol id="icon-left" viewBox="0 0 12 21">
    <path fill-rule="evenodd" d="M10.688.25a.654.654 0 0 1 .468.195c.13.13.196.29.196.479a.65.65 0 0 1-.196.478L2.25 10.31l8.79 8.789a.64.64 0 0 1 .194.468.64.64 0 0 1-.195.47.65.65 0 0 1-.478.194.65.65 0 0 1-.479-.195L.824 10.777a.64.64 0 0 1-.195-.468.64.64 0 0 1 .195-.47L10.22.446a.68.68 0 0 1 .469-.195z"/>
</symbol><symbol id="icon-menu-open" viewBox="0 0 30 24">
    <path fill-rule="evenodd" d="M1.44 21.12h27.12a1.44 1.44 0 0 1 0 2.88H1.44a1.44 1.44 0 0 1 0-2.88zm0-10.56h12.604a1.44 1.44 0 0 1 0 2.88H1.44a1.44 1.44 0 0 1 0-2.88zM1.44 0h21.314a1.44 1.44 0 0 1 0 2.88H1.44a1.44 1.44 0 1 1 0-2.88z"/>
</symbol><symbol id="icon-ok" viewBox="0 0 22 22">
    
    <title>
        social_ok
    </title>
    <path class="cls-1" d="M13.3 16a11 11 0 0 0 3.3-1.36 1.66 1.66 0 0 0-1.77-2.81 7.25 7.25 0 0 1-7.66 0 1.67 1.67 0 0 0-2.29.52 1.66 1.66 0 0 0 .52 2.29A11 11 0 0 0 8.7 16l-3.18 3.17a1.65 1.65 0 0 0 0 2.34 1.67 1.67 0 0 0 2.36 0l3.12-3.1 3.12 3.1a1.67 1.67 0 0 0 2.35 0 1.65 1.65 0 0 0 0-2.34L13.3 16"/>
    <path class="cls-1" d="M11 0a5.69 5.69 0 1 0 5.69 5.69A5.69 5.69 0 0 0 11 0m0 8.05a2.36 2.36 0 1 1 2.36-2.36A2.36 2.36 0 0 1 11 8.05"/>
</symbol><symbol id="icon-page-1" viewBox="0 0 12 78">
    <path fill-rule="evenodd" d="M5.002 0v66.901H0L6 78l6-11.099H7V0z"/>
</symbol><symbol id="icon-person" viewBox="0 0 14 14">
    <path fill-rule="evenodd" d="M9.48 5.98C8.798 6.66 7.971 7 7 7s-1.799-.34-2.48-1.02C3.84 5.298 3.5 4.471 3.5 3.5s.34-1.799 1.02-2.48C5.202.34 6.029 0 7 0s1.799.34 2.48 1.02c.68.681 1.02 1.508 1.02 2.48s-.34 1.799-1.02 2.48zM2.405 9.733C4.01 9.078 5.542 8.75 7 8.75c1.458 0 2.99.322 4.594.966C13.198 10.36 14 11.205 14 12.25V14H0v-1.75c0-1.045.802-1.884 2.406-2.516z"/>
</symbol><symbol id="icon-vk" viewBox="0 0 22 22">
    
    <title>
        social_vk
    </title>
    <path class="cls-1" d="M18.22 11.3s2.89-4.08 3.17-5.42c.1-.48-.11-.75-.61-.75h-2.51a.91.91 0 0 0-.95.62 22.85 22.85 0 0 1-3 4.7c-.53.59-.8.77-1.09.77s-.34-.2-.34-.73V5.84c0-.65-.08-.84-.61-.84h-4c-.31 0-.5.18-.5.42 0 .61.94.75.94 2.41v3.43c0 .69 0 1-.37 1-.86 0-2.9-3-4.05-6.33C4 5.19 3.79 5 3.14 5H.63a.6.6 0 0 0-.63.61c0 .67.78 3.77 3.87 7.92 2.06 2.8 4.78 4.31 7.23 4.31 1.49 0 1.85-.25 1.85-.88v-2.14c0-.54.22-.77.52-.77s.95.11 2.37 1.51c1.69 1.61 1.8 2.28 2.72 2.28h2.81c.29 0 .56-.13.56-.61s-.82-1.76-2.09-3.1c-.51-.69-1.35-1.44-1.62-1.78s-.27-.63 0-1"/>
</symbol><symbol id="icon-yt" viewBox="0 0 22 22">
    
    <title>
        social_yt
    </title>
    <path class="cls-1" d="M21.77 6.34a4.81 4.81 0 0 0-.88-2.19 3.15 3.15 0 0 0-2.2-.93C15.61 3 11 3 11 3s-4.63 0-7.7.22a3.18 3.18 0 0 0-2.21.93 4.75 4.75 0 0 0-.87 2.19A33.26 33.26 0 0 0 0 9.9v1.67a33.26 33.26 0 0 0 .22 3.56 4.75 4.75 0 0 0 .87 2.19 3.83 3.83 0 0 0 2.43.94c1.76.17 7.47.22 7.47.22s4.62 0 7.7-.23a3.15 3.15 0 0 0 2.2-.93 4.81 4.81 0 0 0 .88-2.19 33.26 33.26 0 0 0 .23-3.56V9.9a33.26 33.26 0 0 0-.23-3.56zm-13 7.25V7.41l5.94 3.1z"/>
</symbol></svg>