<?xml version="1.0" encoding="UTF-8"?><!DOCTYPE svg PUBLIC "-//W3C//DTD SVG 1.1//EN" "http://www.w3.org/Graphics/SVG/1.1/DTD/svg11.dtd"><svg xmlns="http://www.w3.org/2000/svg" xmlns:xlink="http://www.w3.org/1999/xlink"><defs>
        <path id="a" d="M21.991 0v21.991H0V0h21.991z"/>
    
        <path id="a" d="M0 10.462V.049h12.754v10.413z"/>
    
        <path id="a" d="M0 0h21.93v12.84H0V0z"/>
    
        <path id="a" d="M21.988 7.739v7.739H0V0h21.988z"/>
    </defs><symbol id="icon-checkmark" viewBox="0 0 10 9">
    <path fill-rule="evenodd" d="M8.695.023a.82.82 0 0 1 .68.165.977.977 0 0 1 .375.62.906.906 0 0 1-.164.715L4.734 8.602a.965.965 0 0 1-.597.375.802.802 0 0 1-.668-.165c-.125-.093-.453-.425-.985-.996a82.877 82.877 0 0 1-1.5-1.652l-.726-.797A.97.97 0 0 1 0 4.687a.93.93 0 0 1 .281-.68.859.859 0 0 1 1.29.048l2.32 2.508L8.109.397a.96.96 0 0 1 .586-.375z"/>
</symbol><symbol id="icon-fb-copy" viewBox="0 0 22 22">
    
    <g fill-rule="evenodd">
        <mask id="b">
            <use xlink:href="#a"/>
        </mask>
        <path d="M20.778 0H1.214C.544 0 0 .543 0 1.214v19.564c0 .67.543 1.213 1.214 1.213h10.532v-8.516H8.88v-3.319h2.866V7.71c0-2.84 1.735-4.387 4.269-4.387 1.214 0 2.257.09 2.56.13v2.969h-1.757c-1.378 0-1.644.655-1.644 1.616v2.12h3.286l-.428 3.318h-2.858v8.516h5.604c.67 0 1.213-.543 1.213-1.213V1.214c0-.67-.543-1.214-1.213-1.214" mask="url(#b)"/>
    </g>
</symbol><symbol id="icon-instagram-copy-2" viewBox="0 0 22 22">
    <g fill-rule="evenodd">
        <path d="M10.997.044C8.01.044 7.636.056 6.463.11c-1.17.053-1.97.24-2.67.511a5.39 5.39 0 0 0-1.947 1.268A5.39 5.39 0 0 0 .577 3.837c-.272.7-.457 1.499-.51 2.67C.012 7.678 0 8.053 0 11.04s.013 3.361.066 4.534c.054 1.17.24 1.97.511 2.67a5.39 5.39 0 0 0 1.269 1.947 5.39 5.39 0 0 0 1.947 1.268c.7.272 1.5.458 2.67.512 1.173.053 1.547.066 4.534.066 2.986 0 3.36-.013 4.533-.066 1.17-.054 1.97-.24 2.67-.512a5.39 5.39 0 0 0 1.947-1.268 5.39 5.39 0 0 0 1.269-1.948c.272-.7.458-1.499.51-2.669.054-1.173.067-1.547.067-4.534 0-2.986-.013-3.36-.066-4.534-.053-1.17-.24-1.97-.511-2.669a5.39 5.39 0 0 0-1.269-1.948A5.39 5.39 0 0 0 18.2.621C17.5.349 16.7.163 15.53.11 14.357.056 13.983.044 10.997.044m0 1.981c2.936 0 3.284.011 4.443.064 1.072.049 1.654.228 2.042.379.513.2.88.438 1.264.822.385.385.623.751.823 1.265.15.387.33.97.379 2.042.052 1.16.064 1.507.064 4.443s-.012 3.284-.064 4.444c-.05 1.072-.228 1.654-.379 2.042-.2.513-.438.88-.823 1.264a3.407 3.407 0 0 1-1.264.823c-.388.15-.97.33-2.042.378-1.16.053-1.507.064-4.443.064-2.937 0-3.285-.01-4.444-.064-1.072-.049-1.654-.228-2.042-.378-.513-.2-.88-.438-1.264-.823a3.407 3.407 0 0 1-.823-1.264c-.15-.388-.33-.97-.379-2.042-.052-1.16-.064-1.508-.064-4.444s.012-3.284.064-4.443c.05-1.073.229-1.655.38-2.042.199-.514.437-.88.822-1.265a3.407 3.407 0 0 1 1.264-.822c.388-.15.97-.33 2.042-.379 1.16-.053 1.507-.064 4.444-.064"/>
        <path d="M10.997 14.706a3.666 3.666 0 1 1 0-7.331 3.666 3.666 0 0 1 0 7.33m0-9.312a5.647 5.647 0 1 0 0 11.294 5.647 5.647 0 0 0 0-11.294m7.189-.223a1.32 1.32 0 1 1-2.639 0 1.32 1.32 0 0 1 2.64 0"/>
    </g>
</symbol><symbol id="icon-left" viewBox="0 0 12 21">
    <path fill-rule="evenodd" d="M10.688.25a.654.654 0 0 1 .468.195c.13.13.196.29.196.479a.65.65 0 0 1-.196.478L2.25 10.31l8.79 8.789a.64.64 0 0 1 .194.468.64.64 0 0 1-.195.47.65.65 0 0 1-.478.194.65.65 0 0 1-.479-.195L.824 10.777a.64.64 0 0 1-.195-.468.64.64 0 0 1 .195-.47L10.22.446a.68.68 0 0 1 .469-.195z"/>
</symbol><symbol id="icon-menu-open" viewBox="0 0 30 24">
    <path fill-rule="evenodd" d="M1.44 21.12h27.12a1.44 1.44 0 0 1 0 2.88H1.44a1.44 1.44 0 0 1 0-2.88zm0-10.56h12.604a1.44 1.44 0 0 1 0 2.88H1.44a1.44 1.44 0 0 1 0-2.88zM1.44 0h21.314a1.44 1.44 0 0 1 0 2.88H1.44a1.44 1.44 0 1 1 0-2.88z"/>
</symbol><symbol id="icon-ok-copy" viewBox="0 0 22 22">
    
    <g fill-rule="evenodd">
        <g transform="translate(5 11.538)">
            <mask id="b">
                <use xlink:href="#a"/>
            </mask>
            <path d="M8.676 4.47a10.667 10.667 0 0 0 3.3-1.36A1.653 1.653 0 0 0 12.5.823a1.669 1.669 0 0 0-2.294-.522l-.002.002a7.245 7.245 0 0 1-7.651 0A1.668 1.668 0 0 0 .258.822L.256.824A1.653 1.653 0 0 0 .778 3.11a10.677 10.677 0 0 0 3.3 1.36L.9 7.632a1.652 1.652 0 0 0 0 2.344 1.67 1.67 0 0 0 2.355 0l3.122-3.108L9.5 9.976a1.668 1.668 0 0 0 2.35.002l.003-.002a1.65 1.65 0 0 0 .003-2.34l-.003-.003-3.177-3.164" mask="url(#b)"/>
        </g>
        <path d="M11.462 8.05a2.36 2.36 0 0 1-2.357-2.356 2.36 2.36 0 0 1 2.357-2.357 2.36 2.36 0 0 1 2.356 2.357 2.36 2.36 0 0 1-2.356 2.356m0-8.05a5.699 5.699 0 0 0-5.693 5.694 5.698 5.698 0 0 0 5.693 5.69 5.697 5.697 0 0 0 5.692-5.69A5.699 5.699 0 0 0 11.462 0"/>
    </g>
</symbol><symbol id="icon-page-1" viewBox="0 0 12 78">
    <path fill-rule="evenodd" d="M5.002 0v66.901H0L6 78l6-11.099H7V0z"/>
</symbol><symbol id="icon-vk-copy" viewBox="0 0 22 22">
    
    <g fill-rule="evenodd" transform="translate(0 5)">
        <mask id="b">
            <use xlink:href="#a"/>
        </mask>
        <path d="M18.217 6.296S21.107 2.22 21.394.88c.095-.478-.115-.746-.613-.746h-2.506c-.574 0-.785.249-.957.612 0 0-1.356 2.888-3.004 4.708-.53.588-.8.765-1.091.765-.236 0-.345-.196-.345-.727V.842c0-.65-.076-.842-.612-.842H8.248C7.94 0 7.75.178 7.75.42c0 .614.938.752.938 2.412v3.425c0 .69-.039.957-.364.957-.861 0-2.909-2.966-4.057-6.334C4.037.191 3.79 0 3.138 0H.631C.268 0 0 .249 0 .612c0 .67.785 3.77 3.865 7.922C5.932 11.328 8.65 12.84 11.1 12.84c1.492 0 1.856-.249 1.856-.88V9.817c0-.536.21-.766.517-.766.344 0 .952.11 2.372 1.512 1.684 1.607 1.8 2.277 2.718 2.277h2.813c.287 0 .555-.134.555-.612 0-.632-.823-1.76-2.086-3.1-.517-.69-1.359-1.435-1.627-1.78-.382-.402-.268-.631 0-1.052" mask="url(#b)"/>
    </g>
</symbol><symbol id="icon-youtube-copy" viewBox="0 0 22 22">
    
    <g fill-rule="evenodd" transform="translate(0 3)">
        <mask id="b">
            <use xlink:href="#a"/>
        </mask>
        <path d="M8.724 10.593L8.723 4.41l5.941 3.103-5.94 3.08zM21.77 3.34s-.215-1.516-.875-2.184c-.836-.877-1.773-.881-2.203-.932C15.614 0 11 0 11 0h-.01S6.374 0 3.297.223c-.43.05-1.367.055-2.203.932C.434 1.823.22 3.339.22 3.339S0 5.119 0 6.901v1.67c0 1.78.22 3.56.22 3.56s.214 1.517.874 2.185c.836.877 1.935.849 2.424.94 1.76.17 7.476.222 7.476.222s4.62-.007 7.697-.23c.43-.051 1.367-.055 2.203-.932.66-.668.875-2.184.875-2.184s.22-1.781.22-3.562V6.9c0-1.78-.22-3.561-.22-3.561z" mask="url(#b)"/>
    </g>
</symbol></svg>